<svg width="48" height="48" viewBox="0 0 48 48" fill="none" xmlns="http://www.w3.org/2000/svg">
<g clip-path="url(#clip0_1597_5702)">
<path d="M24 0C10.7557 0 0 10.7557 0 24C0 37.2443 10.7557 48 24 48C37.2443 48 48 37.2443 48 24C48 10.7557 37.2443 0 24 0ZM24 1.84985C36.2455 1.84985 46.1538 11.7545 46.1538 24C46.1538 36.2455 36.2455 46.1538 24 46.1538C11.7545 46.1538 1.84615 36.2455 1.84615 24C1.84615 11.7545 11.7545 1.84985 24 1.84985ZM16.6338 12.9194V16.6191H9.216V35.0806H38.784V16.6191H31.4105V12.9194H16.6338ZM18.48 14.7655H29.5643V18.4652H36.9378V33.2345H11.0622V18.4652H18.48V14.7655ZM24 18.4431C22.2875 18.447 20.6462 19.129 19.4353 20.3399C18.2244 21.5509 17.5424 23.1921 17.5385 24.9046C17.5385 28.4622 20.4425 31.3662 24 31.3662C27.5575 31.3662 30.4615 28.4622 30.4615 24.9046C30.4615 21.3471 27.5575 18.4431 24 18.4431ZM24 20.2892C26.5606 20.2892 28.6154 22.3458 28.6154 24.9046C28.6154 27.4652 26.5606 29.52 24 29.52C23.3934 29.5219 22.7923 29.4039 22.2315 29.1726C21.6706 28.9414 21.161 28.6015 20.7321 28.1725C20.3031 27.7436 19.9632 27.234 19.732 26.6732C19.5007 26.1123 19.3827 25.5113 19.3846 24.9046C19.3846 22.3458 21.4394 20.2892 24 20.2892Z" fill="#4A00E0"/>
</g>
<defs>
<clipPath id="clip0_1597_5702">
<rect width="48" height="48" fill="white"/>
</clipPath>
</defs>
</svg>
