<svg width="48" height="48" viewBox="0 0 48 48" fill="none" xmlns="http://www.w3.org/2000/svg">
<path d="M39.1336 10.9428C41.8858 10.9428 44.1249 8.70356 44.1249 5.95145C44.1248 3.19907 41.8857 0.959961 39.1336 0.959961C36.3812 0.959961 34.142 3.19916 34.142 5.95154C34.142 8.70356 36.3811 10.9428 39.1336 10.9428ZM39.1336 1.44182C41.62 1.44182 43.643 3.46466 43.643 5.95136C43.643 8.43779 41.62 10.4607 39.1336 10.4607C36.6469 10.4607 34.6241 8.43788 34.6241 5.95136C34.6239 3.46475 36.6468 1.44182 39.1336 1.44182ZM43.5954 21.3398H15.8146V19.7542H22.0558C22.7164 19.7542 23.2537 19.216 23.2537 18.5543V9.15617C23.2537 8.49557 22.7164 7.95827 22.0558 7.95827H5.90328C5.24268 7.95827 4.70538 8.49557 4.70538 9.15617V18.5542C4.70538 19.216 5.24268 19.7541 5.90328 19.7541H12.1421V21.3397H4.40469C3.47985 21.3397 2.72754 22.0923 2.72754 23.0172V27.2086C2.72754 28.1334 3.47985 28.8857 4.40469 28.8857H5.18742V44.7769C5.18742 46.0246 6.20262 47.0398 7.45029 47.0398H40.5483C41.7974 47.0398 42.8136 46.0246 42.8136 44.7769V28.8858H43.5954C44.5202 28.8858 45.2725 28.1335 45.2725 27.2086V23.0172C45.2725 22.0924 44.5202 21.3398 43.5954 21.3398ZM5.90328 19.2722C5.50863 19.2722 5.18742 18.9501 5.18742 18.5542V9.15617C5.18742 8.76152 5.50863 8.44031 5.90328 8.44031H22.0558C22.4504 8.44031 22.7716 8.76152 22.7716 9.15617V18.5542C22.7716 18.9501 22.4504 19.2723 22.0558 19.2723H15.8146V13.4382C15.8146 12.42 14.9924 11.6019 13.9783 11.6019C12.9658 11.6019 12.1421 12.4256 12.1421 13.4382V19.2723L5.90328 19.2722ZM12.624 13.4382C12.624 12.6915 13.2316 12.0839 13.9783 12.0839C14.7247 12.0839 15.3327 12.6859 15.3327 13.4382V21.3398H12.624V13.4382ZM42.3317 44.7771C42.3317 45.7592 41.5318 46.5581 40.5483 46.5581H7.45029C6.46821 46.5581 5.66937 45.7592 5.66937 44.7771V28.8859H42.3318V44.7771H42.3317ZM44.7907 27.2086C44.7907 27.8677 44.2546 28.4038 43.5955 28.4038C39.4823 28.4038 8.82954 28.4038 4.40469 28.4038C3.74562 28.4038 3.20949 27.8678 3.20949 27.2086V23.0173C3.20949 22.3582 3.74553 21.8218 4.40469 21.8218H43.5955C44.2545 21.8218 44.7907 22.3582 44.7907 23.0173V27.2086Z" fill="#4A00E0" stroke="#4A00E0"/>
<path d="M39.1337 6.19213H41.282C41.4152 6.19213 41.523 6.08431 41.523 5.95111C41.523 5.81791 41.4152 5.71009 41.282 5.71009H39.3746V2.81866C39.3746 2.68546 39.2668 2.57764 39.1336 2.57764C39.0004 2.57764 38.8926 2.68546 38.8926 2.81866V5.95111C38.8927 6.08431 39.0005 6.19213 39.1337 6.19213Z" fill="#4A00E0" stroke="#4A00E0" stroke-width="0.8"/>
</svg>
