<svg width="48" height="48" viewBox="0 0 48 48" fill="none" xmlns="http://www.w3.org/2000/svg">
<path d="M32.5455 4.5C29.2695 4.5 26.2545 6.0285 24.2025 8.484C23.175 7.935 22.0725 7.5015 20.895 7.5C20.894 7.5 20.893 7.5 20.892 7.5C17.142 7.5 14.0925 10.4145 13.974 14.0475C13.434 13.8375 12.939 13.5015 12.348 13.5C10.3905 13.5 8.8035 14.799 8.145 16.5615C4.4685 16.7325 1.5 19.62 1.5 23.25C1.5 26.991 4.632 30 8.4645 30H10.845L11.097 30.975L11.118 31.0515L11.1855 31.236L11.4435 31.9395L12.8535 31.4235L12.594 30.72L12.5445 30.5835L12.2445 29.4165L12.132 28.6755L11.9115 28.7085C11.7692 28.5721 11.579 28.4972 11.382 28.5H8.4645C5.4105 28.5 3 26.157 3 23.25C3 20.343 5.4105 18 8.4645 18H8.5425C8.71456 18.0003 8.8815 17.9415 9.01532 17.8333C9.14914 17.7252 9.24171 17.5743 9.2775 17.406C9.573 16.0155 10.845 15 12.3495 15C13.056 15 13.7385 15.2325 14.289 15.651C14.4077 15.7411 14.5504 15.7938 14.6992 15.8024C14.8479 15.811 14.9958 15.7751 15.1241 15.6993C15.2523 15.6235 15.3551 15.5112 15.4193 15.3768C15.4835 15.2424 15.5062 15.0919 15.4845 14.9445C15.4507 14.7135 15.4332 14.4804 15.432 14.247C15.432 11.3565 17.8545 9.003 20.892 9C21.9915 9 23.0625 9.3225 23.967 9.915C24.1267 10.0188 24.3198 10.0579 24.5073 10.0245C24.6948 9.99104 24.8625 9.88756 24.9765 9.735C26.727 7.398 29.5425 6 32.5455 6C37.731 6 41.8905 10.035 41.8905 15C41.8903 15.8886 41.7537 16.7719 41.4855 17.619C41.4301 17.7937 41.4406 17.9825 41.5149 18.15C41.5893 18.3175 41.7223 18.4519 41.889 18.528C43.7385 19.3755 45 21.1545 45 23.25C45 26.157 42.5895 28.5 39.5355 28.5H37.4145L37.4265 28.4175L37.4325 28.3395L37.5 27.0345L37.5375 26.2875L36.0375 26.2125L36 26.9655L35.9385 28.2135L35.9115 28.383L35.8005 29.127L35.8215 29.13C35.804 29.2381 35.8103 29.3486 35.8401 29.454C35.8698 29.5593 35.9223 29.6569 35.9938 29.7398C36.0652 29.8227 36.154 29.8889 36.2538 29.9339C36.3536 29.9788 36.462 30.0014 36.5715 30H39.5355C43.368 30 46.5 26.991 46.5 23.25C46.5 20.775 45.03 18.738 42.993 17.5695C43.215 16.7295 43.3905 15.8745 43.392 15.003C43.392 9.198 38.514 4.503 32.547 4.503V4.5H32.5455ZM24.645 13.47L23.895 13.506L22.6575 13.566L22.5825 13.581L22.3245 13.617L21.5835 13.731L21.8085 15.2145L22.5495 15.099L22.758 15.069L23.97 15.006L24.72 14.9685L24.645 13.47ZM26.367 13.6815L25.992 15.1365L26.7195 15.3225L27.5565 15.5385L28.0845 15.729L28.7865 15.987L29.3025 14.577L28.599 14.3205L28.0485 14.121L27.978 14.094L27.093 13.866L26.367 13.6815ZM19.98 14.109L19.275 14.367L18.78 14.5485L18.7125 14.5785L17.8365 15L17.1585 15.3255L17.8095 16.6755L18.486 16.35L19.3215 15.9495L19.7895 15.777L20.496 15.519L19.98 14.109ZM30.768 15.3315L29.988 16.614L30.63 17.004L30.7005 17.0415L31.605 17.7165L31.623 17.733L31.713 17.8155L32.268 18.3195L33.279 17.2095L32.721 16.7055L32.613 16.608L32.5605 16.5615L31.5795 15.8295L31.518 15.7875L31.4055 15.72L30.768 15.33V15.3315ZM15.732 16.2825L15.1785 16.7955L14.478 17.4315L14.4285 17.478L14.0565 17.889L13.5495 18.444L14.6595 19.4535L15.1635 18.8985L15.489 18.5385L15.501 18.5235L16.1865 17.898L16.743 17.394L15.732 16.284V16.2825ZM22.227 16.5C22.0281 16.5 21.8373 16.579 21.6967 16.7197C21.556 16.8603 21.477 17.0511 21.477 17.25V18.744C20.9455 18.9044 20.4307 19.1154 19.9395 19.374L18.8895 18.324C18.7489 18.1839 18.5585 18.1052 18.36 18.1052C18.1615 18.1052 17.9711 18.1839 17.8305 18.324L15.3225 20.829C15.2527 20.8987 15.1972 20.9814 15.1594 21.0726C15.1216 21.1637 15.1022 21.2614 15.1022 21.36C15.1022 21.4587 15.1216 21.5563 15.1594 21.6475C15.1972 21.7386 15.2527 21.8213 15.3225 21.891L16.377 22.9455C16.1166 23.4345 15.9036 23.9474 15.741 24.477H14.25C14.0511 24.477 13.8603 24.556 13.7197 24.6967C13.579 24.8373 13.5 25.0281 13.5 25.227V28.776C13.5 28.9749 13.579 29.1657 13.7197 29.3063C13.8603 29.447 14.0511 29.526 14.25 29.526H15.741C15.903 30.057 16.1115 30.5685 16.371 31.0605L15.321 32.112C15.1804 32.2526 15.1014 32.4434 15.1014 32.6423C15.1014 32.8411 15.1804 33.0319 15.321 33.1725L17.8305 35.6775C17.9711 35.8181 18.1619 35.8971 18.3608 35.8971C18.5596 35.8971 18.7504 35.8181 18.891 35.6775L19.941 34.626C20.4345 34.887 20.946 35.0985 21.477 35.262V36.75C21.477 36.9489 21.556 37.1397 21.6967 37.2803C21.8373 37.421 22.0281 37.5 22.227 37.5H25.773C25.9719 37.5 26.1627 37.421 26.3033 37.2803C26.444 37.1397 26.523 36.9489 26.523 36.75V35.259C27.0544 35.0986 27.5693 34.8876 28.0605 34.629L29.1105 35.679C29.2511 35.8191 29.4415 35.8978 29.64 35.8978C29.8385 35.8978 30.0289 35.8191 30.1695 35.679L32.6775 33.174C32.7473 33.1043 32.8028 33.0216 32.8406 32.9305C32.8784 32.8393 32.8978 32.7417 32.8978 32.643C32.8978 32.5443 32.8784 32.4467 32.8406 32.3556C32.8028 32.2644 32.7473 32.1817 32.6775 32.112L31.623 31.0575C31.884 30.567 32.0955 30.057 32.259 29.526H33.75C33.9489 29.526 34.1397 29.447 34.2803 29.3063C34.421 29.1657 34.5 28.9749 34.5 28.776V25.227C34.5 25.0281 34.421 24.8373 34.2803 24.6967C34.1397 24.556 33.9489 24.477 33.75 24.477H32.259C32.0984 23.9466 31.8875 23.4327 31.629 22.9425L32.679 21.891C32.8196 21.7504 32.8986 21.5596 32.8986 21.3608C32.8986 21.1619 32.8196 20.9711 32.679 20.8305L30.1695 18.3255C30.0289 18.1849 29.8381 18.1059 29.6393 18.1059C29.4404 18.1059 29.2496 18.1849 29.109 18.3255L28.059 19.377C27.5685 19.1163 27.0542 18.9033 26.523 18.741V17.25C26.523 17.0511 26.444 16.8603 26.3033 16.7197C26.1627 16.579 25.9719 16.5 25.773 16.5H22.227ZM22.977 18H25.023V19.23C25.0224 19.4002 25.0797 19.5654 25.1855 19.6987C25.2912 19.832 25.4392 19.9254 25.605 19.9635C26.397 20.1435 27.156 20.457 27.843 20.889C27.987 20.9795 28.1574 21.0184 28.3264 20.9994C28.4954 20.9803 28.6528 20.9043 28.773 20.784L29.64 19.9155L31.0875 21.36L30.222 22.227C30.1019 22.3466 30.0259 22.5033 30.0062 22.6717C29.9866 22.84 30.0246 23.01 30.114 23.154C30.5445 23.844 30.8565 24.6015 31.0335 25.395C31.0716 25.5608 31.165 25.7088 31.2983 25.8145C31.4316 25.9203 31.5968 25.9776 31.767 25.977H33V28.026H31.77C31.5998 28.0254 31.4346 28.0827 31.3013 28.1885C31.168 28.2942 31.0746 28.4422 31.0365 28.608C30.8569 29.3996 30.545 30.1552 30.114 30.843C30.0233 30.9868 29.9841 31.1571 30.0029 31.3261C30.0217 31.4951 30.0974 31.6527 30.2175 31.773L31.0875 32.643L29.64 34.0875L28.776 33.222C28.6558 33.1017 28.4984 33.0257 28.3294 33.0066C28.1604 32.9876 27.99 33.0265 27.846 33.117C27.1569 33.5462 26.4003 33.8561 25.608 34.0335C25.4416 34.071 25.293 34.1641 25.1866 34.2975C25.0803 34.4308 25.0226 34.5964 25.023 34.767V36H22.977V34.77C22.9769 34.6004 22.9193 34.4358 22.8136 34.3031C22.7079 34.1704 22.5603 34.0775 22.395 34.0395C21.6023 33.8589 20.8457 33.546 20.157 33.114C20.013 33.0235 19.8426 32.9846 19.6736 33.0036C19.5046 33.0227 19.3472 33.0987 19.227 33.219L18.36 34.0875L16.9125 32.643L17.781 31.776C17.9006 31.6561 17.9761 31.4991 17.9952 31.3308C18.0142 31.1625 17.9758 30.9927 17.886 30.849C17.4558 30.159 17.1449 29.4014 16.9665 28.608C16.9284 28.4422 16.835 28.2942 16.7017 28.1885C16.5684 28.0827 16.4031 28.0254 16.233 28.026H15V25.977H16.23C16.4001 25.9776 16.5654 25.9203 16.6987 25.8145C16.832 25.7088 16.9254 25.5608 16.9635 25.395C17.1431 24.6034 17.455 23.8478 17.886 23.16C17.9767 23.0162 18.0159 22.8459 17.9971 22.6769C17.9783 22.5079 17.9026 22.3503 17.7825 22.23L16.9125 21.36L18.36 19.9155L19.224 20.781C19.3442 20.9013 19.5016 20.9773 19.6706 20.9964C19.8396 21.0154 20.01 20.9765 20.154 20.886C20.844 20.4555 21.5985 20.1435 22.392 19.9665C22.5584 19.929 22.707 19.8359 22.8134 19.7025C22.9197 19.5692 22.9774 19.4036 22.977 19.233V18ZM34.4085 18.402L33.2085 19.2975L33.657 19.8975L33.9525 20.2965L34.4355 21.093L34.8255 21.735L36.108 20.955L35.718 20.3145L35.2155 19.482L35.1735 19.4235L34.8585 19.002L34.4085 18.402ZM12.6 19.782L12.21 20.4285L12.147 20.532L12.114 20.595L11.574 21.7095L11.5485 21.777L11.499 21.9075L11.241 22.614L12.651 23.13L12.9075 22.425L12.9285 22.362L12.9345 22.347L13.4505 21.276L13.4955 21.201L13.884 20.5605L12.6 19.7805V19.782ZM36.78 22.5435L35.3295 22.9185L35.514 23.646L35.757 24.5835L35.8245 25.0335L35.9385 25.779L37.4205 25.5495L37.3065 24.8085L37.233 24.3195L37.218 24.2445L36.9675 23.2695L36.78 22.5435ZM24 23.388C23.0429 23.3908 22.1258 23.7722 21.449 24.449C20.7722 25.1258 20.3908 26.0429 20.388 27C20.3908 27.9574 20.7721 28.8748 21.4488 29.5521C22.1255 30.2293 23.0426 30.6114 24 30.615C24.9574 30.6114 25.8745 30.2293 26.5512 29.5521C27.2279 28.8748 27.6092 27.9574 27.612 27C27.6092 26.0429 27.2278 25.1258 26.551 24.449C25.8742 23.7722 24.9571 23.3908 24 23.388ZM10.785 24.198L10.6725 24.9435L10.5735 25.5855L10.5675 25.6605L10.5225 26.508L10.485 27.258L11.985 27.333L12.024 26.583L12.0615 25.7895L12.156 25.1685L12.27 24.4275L10.785 24.1995V24.198ZM24 24.888C24.2778 24.8864 24.5531 24.94 24.8101 25.0455C25.0671 25.1511 25.3005 25.3066 25.497 25.503C25.6934 25.6995 25.8489 25.9329 25.9545 26.1899C26.0601 26.4469 26.1136 26.7222 26.112 27C26.112 28.176 25.176 29.115 24 29.115C23.7221 29.1162 23.4466 29.0623 23.1897 28.9564C22.9327 28.8505 22.6993 28.6947 22.5029 28.498C22.3065 28.3013 22.151 28.0677 22.0455 27.8106C21.9399 27.5534 21.8864 27.2779 21.888 27C21.8864 26.7222 21.9399 26.4469 22.0455 26.1899C22.1511 25.9329 22.3066 25.6995 22.503 25.503C22.6995 25.3066 22.9329 25.1511 23.1899 25.0455C23.4469 24.94 23.7222 24.8864 24 24.888ZM35.505 30.4425L35.247 31.1475L35.0715 31.638L35.0625 31.656L34.6785 32.4555L34.353 33.129L35.703 33.78L36.033 33.105L36.4245 32.2905L36.4515 32.22L36.657 31.665L36.9135 30.9585L35.5035 30.4425H35.505ZM13.41 32.655L12.129 33.4365L12.519 34.0785L12.7845 34.521L12.8265 34.5795L13.4145 35.367L13.8645 35.9655L15.0645 35.0655L14.616 34.4655L14.0475 33.7035L13.7985 33.2955L13.4085 32.655H13.41ZM33.645 34.2135L33.141 34.764L32.511 35.4615L32.499 35.4765L32.151 35.7945L31.593 36.2985L32.604 37.4085L33.159 36.903L33.522 36.573L33.5715 36.525L34.251 35.778L34.755 35.22L33.645 34.2135ZM15.987 35.973L15.087 37.1775L15.6885 37.626L16.4205 38.1735L16.482 38.2125L16.98 38.517L17.622 38.904L18.402 37.623L17.76 37.233L17.2815 36.9405L16.5885 36.4215L15.9885 35.973H15.987ZM30.492 37.0875L29.85 37.473L29.7105 37.5585L28.6695 38.0595L28.638 38.0745L27.933 38.3325L28.4475 39.738L29.1525 39.48L29.22 39.4575L29.2875 39.4245L30.405 38.889L30.465 38.856L30.63 38.757L31.272 38.367L30.492 37.0875ZM19.641 38.1645L19.125 39.5805L19.8285 39.8385L19.9515 39.879L20.022 39.906L21.243 40.2195L21.3165 40.2345L21.4245 40.251L22.1655 40.362L22.3905 38.88L21.651 38.769L21.591 38.754L20.4435 38.4585L20.3445 38.4225L19.6395 38.1645H19.641ZM26.64 38.7135L25.899 38.8365L25.236 38.9355L24.483 38.973L23.736 39.012L23.8095 40.509L24.5595 40.47L25.3425 40.4325L25.4175 40.4175L26.127 40.3095L26.868 40.1955L26.64 38.7135Z" fill="#4A00E0"/>
</svg>
