<svg width="48" height="48" viewBox="0 0 48 48" fill="none" xmlns="http://www.w3.org/2000/svg">
<g clip-path="url(#clip0_1597_5708)">
<path d="M18.75 42H29.25C29.4489 42 29.6397 41.921 29.7803 41.7803C29.921 41.6397 30 41.4489 30 41.25C30 41.0511 29.921 40.8603 29.7803 40.7197C29.6397 40.579 29.4489 40.5 29.25 40.5H18.75C18.5511 40.5 18.3603 40.579 18.2197 40.7197C18.079 40.8603 18 41.0511 18 41.25C18 41.4489 18.079 41.6397 18.2197 41.7803C18.3603 41.921 18.5511 42 18.75 42Z" fill="#4A00E0"/>
<path d="M30.75 25.5C31.5784 25.5 32.25 24.8284 32.25 24C32.25 23.1716 31.5784 22.5 30.75 22.5C29.9216 22.5 29.25 23.1716 29.25 24C29.25 24.8284 29.9216 25.5 30.75 25.5Z" fill="#4A00E0"/>
<path d="M17.9775 29.25C17.9775 29.0511 17.8984 28.8603 17.7578 28.7197C17.6171 28.579 17.4264 28.5 17.2275 28.5H12.0225V26.25C12.0225 26.0511 11.9434 25.8603 11.8028 25.7197C11.6621 25.579 11.4714 25.5 11.2725 25.5C11.0735 25.5 10.8828 25.579 10.7421 25.7197C10.6015 25.8603 10.5225 26.0511 10.5225 26.25V29.25C10.5225 29.4489 10.6015 29.6397 10.7421 29.7803C10.8828 29.921 11.0735 30 11.2725 30H17.229C17.4276 29.9996 17.618 29.9204 17.7583 29.7798C17.8987 29.6392 17.9775 29.4487 17.9775 29.25Z" fill="#4A00E0"/>
<path d="M6 37.4236V47.2501C6 47.449 6.07902 47.6398 6.21967 47.7804C6.36032 47.9211 6.55109 48.0001 6.75 48.0001H41.25C41.4489 48.0001 41.6397 47.9211 41.7803 47.7804C41.921 47.6398 42 47.449 42 47.2501V37.4236C43.71 37.0756 45 35.5606 45 33.7501V32.2501C45 32.0512 44.921 31.8604 44.7803 31.7198C44.6397 31.5791 44.4489 31.5001 44.25 31.5001H38.2305C38.7075 30.8716 39 30.0976 39 29.2501V18.7501C39 18.5512 38.921 18.3604 38.7803 18.2198C38.6397 18.0791 38.4489 18.0001 38.25 18.0001H23.25C23.0511 18.0001 22.8603 18.0791 22.7197 18.2198C22.579 18.3604 22.5 18.5512 22.5 18.7501V19.4971L21.2745 18.1351C21.1995 18.0526 21.0975 18.0211 21 17.9791V16.4296C21.6256 15.8936 22.1283 15.2291 22.4739 14.4813C22.8195 13.7334 22.9998 12.9199 23.0025 12.0961V10.0546L23.8785 6.00311C23.9519 5.60467 23.9449 5.19557 23.8578 4.79988C23.7707 4.4042 23.6054 4.02993 23.3715 3.69911C23.1394 3.36668 22.843 3.08417 22.4998 2.86826C22.1566 2.65236 21.7736 2.50745 21.3735 2.44211L15.936 1.53611C15.1671 1.40521 14.3775 1.57967 13.7353 2.02235C13.0931 2.46503 12.6492 3.14094 12.498 3.90611C11.8464 4.08512 11.289 4.50867 10.9419 5.08851C10.5948 5.66834 10.4849 6.35973 10.635 7.01861L11.4675 10.0606V12.0976C11.4675 13.8466 12.267 15.3976 13.5 16.4566V17.9656C13.392 18.0076 13.281 18.0466 13.2 18.1351L11.778 19.7161L7.971 21.9991C7.37102 22.3619 6.87453 22.8731 6.52933 23.4833C6.18413 24.0936 6.00183 24.7825 6 25.4836V30.7501C6 31.0141 6.054 31.2646 6.138 31.5001H3.75C3.55109 31.5001 3.36032 31.5791 3.21967 31.7198C3.07902 31.8604 3 32.0512 3 32.2501V33.7501C3 35.5606 4.29 37.0756 6 37.4236ZM40.5 46.5001H7.5V37.5001H40.5V46.5001ZM21.129 30.0001H37.371C37.062 30.8731 36.228 31.5001 35.25 31.5001H23.25C22.7849 31.4996 22.3313 31.3552 21.9515 31.0866C21.5718 30.818 21.2845 30.4385 21.129 30.0001ZM24 19.5001H37.5V28.5001H24V19.5001ZM20.532 19.5541L21.2235 20.3221L19.9365 21.9316L18.519 20.5141L20.532 19.5541ZM12.3165 5.72861C12.4206 5.59927 12.5524 5.49492 12.7022 5.42327C12.852 5.35162 13.016 5.31449 13.182 5.31461C13.596 5.31461 13.932 4.91861 13.932 4.50311C13.9318 4.28397 13.9794 4.06743 14.0715 3.86857C14.1636 3.66971 14.2979 3.49331 14.4651 3.35166C14.6323 3.21001 14.8284 3.10652 15.0397 3.0484C15.2509 2.99028 15.4724 2.97892 15.6885 3.01511L21.126 3.92111C21.5385 3.99011 21.9015 4.21811 22.143 4.56161C22.3845 4.90511 22.476 5.32211 22.407 5.71061L21.8535 8.26961L21.444 7.75961V6.87161C21.444 6.6727 21.365 6.48194 21.2243 6.34128C21.0837 6.20063 20.8929 6.12161 20.694 6.12161H13.776C13.5771 6.12161 13.3863 6.20063 13.2457 6.34128C13.105 6.48194 13.026 6.6727 13.026 6.87161V7.76111L12.5535 8.34761L12.093 6.66311C12.0576 6.50056 12.0594 6.33214 12.0981 6.17035C12.1368 6.00856 12.2114 5.85758 12.3165 5.72861ZM12.9675 12.0976V10.2286L14.361 8.49311C14.4676 8.35984 14.5258 8.19429 14.526 8.02361V7.62161H19.944V8.02511C19.944 8.19583 20.0022 8.36145 20.109 8.49461L21.5025 10.2256V12.0976C21.5013 13.2293 21.0511 14.3143 20.2507 15.1144C19.4504 15.9145 18.3652 16.3643 17.2335 16.3651C16.1023 16.3635 15.0179 15.9134 14.2182 15.1133C13.4185 14.3133 12.9687 13.2288 12.9675 12.0976ZM17.2335 17.8651C18.0375 17.8651 18.804 17.6971 19.5 17.3986V18.3841L17.2365 19.4626L15 18.3976V17.4151C15.687 17.7046 16.4415 17.8651 17.2335 17.8651ZM13.941 19.5541L15.9555 20.5141L14.538 21.9316L13.251 20.3221L13.941 19.5541ZM7.5 30.7501V28.4971L7.4985 25.4821C7.4985 24.5866 7.9755 23.7451 8.742 23.2846L12.0915 21.2761L13.89 23.5246C13.956 23.6069 14.0386 23.6744 14.1324 23.7227C14.2262 23.7711 14.3292 23.7991 14.4345 23.8051L14.475 23.8066C14.673 23.8066 14.865 23.7286 15.006 23.5876L17.2365 21.3571L19.467 23.5876C19.608 23.728 19.799 23.8068 19.998 23.8066L20.0385 23.8051C20.1439 23.7993 20.2469 23.7713 20.3407 23.723C20.4345 23.6746 20.5171 23.6071 20.583 23.5246L22.383 21.2746L22.5 21.3436V28.5001H20.25C20.0511 28.5001 19.8603 28.5791 19.7197 28.7198C19.579 28.8604 19.5 29.0512 19.5 29.2501C19.5 30.0976 19.7925 30.8716 20.2695 31.5001H8.25C8.05109 31.5001 7.86032 31.4211 7.71967 31.2804C7.57902 31.1398 7.5 30.949 7.5 30.7501ZM4.5 33.0001H43.5V33.7501C43.5 34.9906 42.4905 36.0001 41.25 36.0001H6.75C5.5095 36.0001 4.5 34.9906 4.5 33.7501V33.0001Z" fill="#4A00E0"/>
</g>
<defs>
<clipPath id="clip0_1597_5708">
<rect width="48" height="48" fill="white"/>
</clipPath>
</defs>
</svg>
