<svg width="48" height="48" viewBox="0 0 48 48" fill="none" xmlns="http://www.w3.org/2000/svg">
<path d="M24.001 2.99902C21.9374 2.99902 20.2479 4.68283 20.2479 6.74933V9.0001H10.4993C10.3011 9.00085 10.1112 9.07991 9.97099 9.22009C9.83081 9.36027 9.75172 9.55023 9.75098 9.74848V44.2496C9.75098 44.4483 9.82973 44.639 9.96999 44.7798C10.1103 44.9206 10.3006 45 10.4993 45.0008H37.4999C37.6991 45.0008 37.8902 44.9216 38.031 44.7808C38.1719 44.6399 38.2511 44.4488 38.2511 44.2496V9.75125C38.2511 9.55202 38.1719 9.36097 38.031 9.22009C37.8902 9.07921 37.6991 9.0001 37.4999 9.0001H27.7513V6.74933C27.7513 4.68283 26.0675 2.99902 24.0039 2.99902H24.001ZM24.001 4.50141C25.2596 4.50141 26.2489 5.49072 26.2489 6.74933V11.2509H21.7474V6.74933C21.7474 5.49072 22.7396 4.50141 24.001 4.50141ZM11.2505 10.4996H20.2479V11.9964C20.2475 12.0955 20.2667 12.1937 20.3045 12.2853C20.3423 12.377 20.3978 12.4603 20.4679 12.5304C20.538 12.6005 20.6213 12.656 20.7129 12.6937C20.8046 12.7315 20.9028 12.7508 21.0019 12.7504H27.003C27.1016 12.75 27.1992 12.7302 27.2902 12.6921C27.3812 12.654 27.4638 12.5984 27.5333 12.5283C27.6028 12.4583 27.6578 12.3753 27.6952 12.284C27.7326 12.1928 27.7517 12.095 27.7513 11.9964V10.4996H36.7515V43.4984H11.2505V10.4996ZM24.001 14.9983C21.5263 14.9983 19.4995 17.0223 19.4995 19.4999C19.4995 21.9746 21.5263 24.0013 24.001 24.0013C26.4785 24.0013 28.5025 21.9746 28.5025 19.4999C28.5025 17.0223 26.4785 14.9983 24.001 14.9983ZM24.001 16.5007C25.6678 16.5007 27.003 17.8331 27.003 19.4999C27.003 21.1638 25.6678 22.5018 24.001 22.5018C23.6064 22.5029 23.2154 22.4259 22.8507 22.2752C22.4859 22.1245 22.1546 21.9031 21.8758 21.6238C21.597 21.3445 21.3763 21.0128 21.2263 20.6477C21.0763 20.2827 21 19.8916 21.0019 19.497C21.0019 17.833 22.3342 16.4979 24.001 16.4979V16.5007ZM21.0019 25.5009C18.1048 25.5009 15.752 27.8537 15.752 30.7479C15.7528 30.9462 15.8319 31.136 15.9721 31.2762C16.1122 31.4164 16.3022 31.4956 16.5004 31.4963H31.496C31.5949 31.4971 31.6929 31.4783 31.7845 31.441C31.8761 31.4038 31.9595 31.3488 32.0298 31.2793C32.1001 31.2097 32.156 31.127 32.1943 31.0358C32.2326 30.9446 32.2525 30.8468 32.2528 30.7479C32.2528 27.8537 29.9 25.5009 27.003 25.5009H21.0019ZM21.0019 27.0032H27.003C28.7973 27.0032 30.0588 28.327 30.4415 29.9967H17.5606C17.9433 28.327 19.2047 27.0032 21.0019 27.0032ZM16.5004 34.4982C16.3981 34.4919 16.2955 34.5066 16.1991 34.5415C16.1026 34.5763 16.0144 34.6305 15.9397 34.7007C15.865 34.771 15.8054 34.8558 15.7648 34.9499C15.7241 35.044 15.7031 35.1455 15.7031 35.248C15.7031 35.3505 15.7241 35.452 15.7648 35.5461C15.8054 35.6402 15.865 35.725 15.9397 35.7952C16.0144 35.8655 16.1026 35.9197 16.1991 35.9545C16.2955 35.9893 16.3981 36.0041 16.5004 35.9978H31.496C31.6952 35.9978 31.8863 35.9186 32.0271 35.7778C32.168 35.6369 32.2472 35.4458 32.2472 35.2466C32.2472 35.0474 32.168 34.8563 32.0271 34.7154C31.8863 34.5746 31.6952 34.4954 31.496 34.4954L16.5004 34.4982ZM16.5004 38.9998C16.4018 38.9998 16.3041 39.0192 16.2129 39.0569C16.1218 39.0947 16.039 39.15 15.9692 39.2198C15.8995 39.2895 15.8441 39.3723 15.8064 39.4635C15.7686 39.5546 15.7492 39.6523 15.7492 39.7509C15.7492 39.8496 15.7686 39.9472 15.8064 40.0384C15.8441 40.1295 15.8995 40.2123 15.9692 40.2821C16.039 40.3518 16.1218 40.4072 16.2129 40.445C16.3041 40.4827 16.4018 40.5022 16.5004 40.5022H25.5006C25.5992 40.5022 25.6969 40.4827 25.788 40.445C25.8792 40.4072 25.962 40.3518 26.0318 40.2821C26.1015 40.2123 26.1568 40.1295 26.1946 40.0384C26.2323 39.9472 26.2518 39.8496 26.2518 39.7509C26.2518 39.6523 26.2323 39.5546 26.1946 39.4635C26.1568 39.3723 26.1015 39.2895 26.0318 39.2198C25.962 39.15 25.8792 39.0947 25.788 39.0569C25.6969 39.0192 25.5992 38.9998 25.5006 38.9998H16.5004Z" fill="#4A00E0"/>
</svg>
