<svg width="48" height="48" viewBox="0 0 48 48" fill="none" xmlns="http://www.w3.org/2000/svg">
<path d="M44.0101 1.08008H3.99008C3.60793 1.08008 3.22953 1.15535 2.87647 1.30159C2.52341 1.44783 2.20262 1.66218 1.9324 1.9324C1.38667 2.47813 1.08008 3.2183 1.08008 3.99008V44.0101C1.08008 44.3922 1.15535 44.7706 1.30159 45.1237C1.44783 45.4767 1.66218 45.7975 1.9324 46.0678C2.20262 46.338 2.52341 46.5523 2.87647 46.6986C3.22953 46.8448 3.60793 46.9201 3.99008 46.9201H44.0101C44.3922 46.9201 44.7706 46.8448 45.1237 46.6986C45.4767 46.5523 45.7975 46.338 46.0678 46.0678C46.338 45.7975 46.5523 45.4767 46.6986 45.1237C46.8448 44.7706 46.9201 44.3922 46.9201 44.0101V3.99008C46.9201 3.60793 46.8448 3.22953 46.6986 2.87647C46.5523 2.52341 46.338 2.20262 46.0678 1.9324C45.7975 1.66218 45.4767 1.44783 45.1237 1.30159C44.7706 1.15535 44.3922 1.08008 44.0101 1.08008ZM6.64508 2.58008H9.24008V14.5801H6.66008L6.64508 2.58008ZM10.7251 2.58008H13.8751V9.90008H10.7401L10.7251 2.58008ZM3.97508 2.58008H5.14508V20.5051H2.58008V4.00508C2.57809 3.81866 2.6131 3.63369 2.68307 3.46089C2.75304 3.28808 2.85659 3.13087 2.98772 2.99835C3.11885 2.86582 3.27495 2.76062 3.44701 2.68882C3.61906 2.61703 3.80365 2.58007 3.99008 2.58008H3.97508ZM45.4201 44.0101C45.4201 44.1952 45.3836 44.3786 45.3128 44.5497C45.2419 44.7207 45.138 44.8762 45.0071 45.0071C44.8762 45.138 44.7207 45.2419 44.5497 45.3128C44.3786 45.3836 44.1952 45.4201 44.0101 45.4201H3.99008C3.80491 45.4201 3.62156 45.3836 3.45049 45.3128C3.27943 45.2419 3.12399 45.138 2.99306 45.0071C2.86213 44.8762 2.75827 44.7207 2.68741 44.5497C2.61655 44.3786 2.58008 44.1952 2.58008 44.0101V22.0051H5.91008C6.10899 22.0051 6.29976 21.9261 6.44041 21.7854C6.58106 21.6448 6.66008 21.454 6.66008 21.2551V16.0051H9.99008C10.189 16.0051 10.3798 15.9261 10.5204 15.7854C10.6611 15.6448 10.7401 15.454 10.7401 15.2551V11.4001H14.6251C14.824 11.4001 15.0148 11.3211 15.1554 11.1804C15.2961 11.0398 15.3751 10.849 15.3751 10.6501V2.58008H44.0101C44.1952 2.58008 44.3786 2.61655 44.5497 2.68741C44.7207 2.75827 44.8762 2.86213 45.0071 2.99306C45.138 3.12399 45.2419 3.27943 45.3128 3.45049C45.3836 3.62156 45.4201 3.80491 45.4201 3.99008V44.0101Z" fill="#4A00E0"/>
<path d="M39.3747 10.365V7.78504C39.3747 7.15648 39.125 6.55366 38.6806 6.1092C38.2361 5.66473 37.6333 5.41504 37.0047 5.41504C36.3762 5.41504 35.7734 5.66473 35.3289 6.1092C34.8844 6.55366 34.6347 7.15648 34.6347 7.78504V10.365C34.1287 10.6648 33.7351 11.1225 33.5145 11.6677C33.2938 12.2129 33.2583 12.8155 33.4133 13.3828C33.5684 13.9502 33.9054 14.4509 34.3727 14.8081C34.84 15.1653 35.4116 15.3592 35.9997 15.36H37.9497C38.5405 15.3659 39.1167 15.1768 39.589 14.8219C40.0613 14.4671 40.4035 13.9664 40.5624 13.3974C40.7213 12.8284 40.6881 12.2229 40.468 11.6747C40.2478 11.1264 39.853 10.6661 39.3447 10.365H39.3747ZM36.1197 7.78504C36.1197 7.5543 36.2114 7.33301 36.3746 7.16986C36.5377 7.0067 36.759 6.91504 36.9897 6.91504C37.2205 6.91504 37.4418 7.0067 37.6049 7.16986C37.7681 7.33301 37.8597 7.5543 37.8597 7.78504V9.96004H36.1197V7.78504ZM37.9647 13.785H35.9997C35.8422 13.785 35.6861 13.754 35.5405 13.6937C35.3949 13.6334 35.2626 13.545 35.1512 13.4336C35.0398 13.3221 34.9514 13.1899 34.8911 13.0443C34.8308 12.8987 34.7997 12.7426 34.7997 12.585C34.7997 12.4275 34.8308 12.2714 34.8911 12.1258C34.9514 11.9802 35.0398 11.8479 35.1512 11.7365C35.2626 11.6251 35.3949 11.5367 35.5405 11.4764C35.6861 11.4161 35.8422 11.385 35.9997 11.385H37.9497C38.268 11.385 38.5732 11.5115 38.7983 11.7365C39.0233 11.9616 39.1497 12.2668 39.1497 12.585C39.1497 12.9033 39.0233 13.2085 38.7983 13.4336C38.5732 13.6586 38.268 13.785 37.9497 13.785H37.9647Z" fill="#4A00E0"/>
<path d="M37.0047 3.13501C35.5718 3.13501 34.1711 3.55992 32.9796 4.35601C31.7882 5.1521 30.8596 6.28362 30.3112 7.60747C29.7629 8.93132 29.6194 10.388 29.899 11.7934C30.1785 13.1988 30.8685 14.4898 31.8818 15.503C32.895 16.5162 34.1859 17.2062 35.5913 17.4858C36.9967 17.7653 38.4534 17.6219 39.7773 17.0735C41.1011 16.5252 42.2326 15.5965 43.0287 14.4051C43.8248 13.2137 44.2497 11.8129 44.2497 10.38C44.2458 8.45973 43.4812 6.61924 42.1233 5.2614C40.7655 3.90356 38.925 3.13897 37.0047 3.13501ZM37.0047 16.14C35.8691 16.14 34.759 15.8034 33.8146 15.1728C32.8701 14.5422 32.1338 13.6459 31.6985 12.597C31.2632 11.5481 31.1486 10.3937 31.3691 9.27972C31.5895 8.16571 32.1352 7.14203 32.9371 6.33798C33.7391 5.53393 34.7613 4.9856 35.8748 4.76223C36.9882 4.53887 38.1429 4.6505 39.1929 5.08303C40.2429 5.51555 41.1412 6.24957 41.7742 7.19236C42.4073 8.13514 42.7468 9.2444 42.7497 10.38C42.7497 11.9051 42.145 13.3679 41.068 14.4476C39.991 15.5274 38.5298 16.136 37.0047 16.14ZM23.9997 23.025C24.7177 23.025 25.4195 22.8121 26.0165 22.4132C26.6134 22.0144 27.0787 21.4474 27.3534 20.7841C27.6282 20.1209 27.7001 19.391 27.56 18.6868C27.4199 17.9827 27.0742 17.3359 26.5665 16.8282C26.0589 16.3205 25.4121 15.9748 24.7079 15.8348C24.0038 15.6947 23.2739 15.7666 22.6106 16.0413C21.9473 16.3161 21.3804 16.7813 20.9815 17.3783C20.5826 17.9752 20.3697 18.6771 20.3697 19.395C20.3737 20.3565 20.7574 21.2775 21.4373 21.9574C22.1172 22.6373 23.0382 23.0211 23.9997 23.025ZM23.9997 17.25C24.421 17.25 24.8328 17.3749 25.1831 17.609C25.5334 17.843 25.8064 18.1757 25.9676 18.5649C26.1288 18.9541 26.171 19.3824 26.0888 19.7956C26.0066 20.2087 25.8038 20.5883 25.5059 20.8861C25.208 21.184 24.8285 21.3869 24.4153 21.4691C24.0021 21.5513 23.5738 21.5091 23.1846 21.3479C22.7954 21.1867 22.4628 20.9137 22.2287 20.5634C21.9947 20.2131 21.8697 19.8013 21.8697 19.38C21.8697 18.8151 22.0942 18.2733 22.4936 17.8739C22.8931 17.4744 23.4348 17.25 23.9997 17.25ZM17.6547 32.25H30.3447C30.5437 32.25 30.7344 32.171 30.8751 32.0303C31.0157 31.8897 31.0947 31.6989 31.0947 31.5V30.93C31.0947 29.0483 30.3472 27.2437 29.0167 25.9131C27.6861 24.5825 25.8815 23.835 23.9997 23.835C22.118 23.835 20.3134 24.5825 18.9828 25.9131C17.6522 27.2437 16.9047 29.0483 16.9047 30.93V31.5C16.9047 31.6989 16.9838 31.8897 17.1244 32.0303C17.2651 32.171 17.4558 32.25 17.6547 32.25ZM23.9997 25.32C25.4555 25.3194 26.8541 25.8861 27.8988 26.9C28.9434 27.9138 29.5518 29.2949 29.5947 30.75H18.4047C18.4477 29.2949 19.056 27.9138 20.1007 26.9C21.1453 25.8861 22.544 25.3194 23.9997 25.32ZM39.4647 37.11H8.53474C7.67658 37.1672 6.87222 37.5484 6.28463 38.1765C5.69703 38.8045 5.37012 39.6324 5.37012 40.4925C5.37012 41.3526 5.69703 42.1805 6.28463 42.8085C6.87222 43.4366 7.67658 43.8178 8.53474 43.875H39.4647C40.3229 43.8178 41.1273 43.4366 41.7149 42.8085C42.3025 42.1805 42.6294 41.3526 42.6294 40.4925C42.6294 39.6324 42.3025 38.8045 41.7149 38.1765C41.1273 37.5484 40.3229 37.1672 39.4647 37.11ZM39.4647 42.375H8.53474C8.06448 42.333 7.62697 42.1165 7.30831 41.7681C6.98966 41.4197 6.81295 40.9646 6.81295 40.4925C6.81295 40.0204 6.98966 39.5653 7.30831 39.2169C7.62697 38.8685 8.06448 38.652 8.53474 38.61H39.4647C39.935 38.652 40.3725 38.8685 40.6912 39.2169C41.0098 39.5653 41.1865 40.0204 41.1865 40.4925C41.1865 40.9646 41.0098 41.4197 40.6912 41.7681C40.3725 42.1165 39.935 42.333 39.4647 42.375Z" fill="#4A00E0"/>
<path d="M11.8802 39.75H10.0352C9.83624 39.75 9.64548 39.829 9.50483 39.9697C9.36417 40.1103 9.28516 40.3011 9.28516 40.5C9.28516 40.6989 9.36417 40.8897 9.50483 41.0303C9.64548 41.171 9.83624 41.25 10.0352 41.25H11.8802C12.0791 41.25 12.2698 41.171 12.4105 41.0303C12.5511 40.8897 12.6302 40.6989 12.6302 40.5C12.6302 40.3011 12.5511 40.1103 12.4105 39.9697C12.2698 39.829 12.0791 39.75 11.8802 39.75ZM17.1002 39.75H15.2552C15.0562 39.75 14.8655 39.829 14.7248 39.9697C14.5842 40.1103 14.5052 40.3011 14.5052 40.5C14.5052 40.6989 14.5842 40.8897 14.7248 41.0303C14.8655 41.171 15.0562 41.25 15.2552 41.25H17.1002C17.2991 41.25 17.4898 41.171 17.6305 41.0303C17.7711 40.8897 17.8502 40.6989 17.8502 40.5C17.8502 40.3011 17.7711 40.1103 17.6305 39.9697C17.4898 39.829 17.2991 39.75 17.1002 39.75ZM22.3202 39.75H20.4752C20.2762 39.75 20.0855 39.829 19.9448 39.9697C19.8042 40.1103 19.7252 40.3011 19.7252 40.5C19.7252 40.6989 19.8042 40.8897 19.9448 41.0303C20.0855 41.171 20.2762 41.25 20.4752 41.25H22.3202C22.5191 41.25 22.7098 41.171 22.8505 41.0303C22.9911 40.8897 23.0702 40.6989 23.0702 40.5C23.0702 40.3011 22.9911 40.1103 22.8505 39.9697C22.7098 39.829 22.5191 39.75 22.3202 39.75ZM27.5252 39.75H25.6952C25.4962 39.75 25.3055 39.829 25.1648 39.9697C25.0242 40.1103 24.9452 40.3011 24.9452 40.5C24.9452 40.6989 25.0242 40.8897 25.1648 41.0303C25.3055 41.171 25.4962 41.25 25.6952 41.25H27.5402C27.7391 41.25 27.9298 41.171 28.0705 41.0303C28.2111 40.8897 28.2902 40.6989 28.2902 40.5C28.2902 40.3011 28.2111 40.1103 28.0705 39.9697C27.9298 39.829 27.7391 39.75 27.5402 39.75H27.5252ZM32.7452 39.75H30.9002C30.7012 39.75 30.5105 39.829 30.3698 39.9697C30.2292 40.1103 30.1502 40.3011 30.1502 40.5C30.1502 40.6989 30.2292 40.8897 30.3698 41.0303C30.5105 41.171 30.7012 41.25 30.9002 41.25H32.7452C32.9441 41.25 33.1348 41.171 33.2755 41.0303C33.4161 40.8897 33.4952 40.6989 33.4952 40.5C33.4952 40.3011 33.4161 40.1103 33.2755 39.9697C33.1348 39.829 32.9441 39.75 32.7452 39.75ZM37.9652 39.75H36.1202C35.9212 39.75 35.7305 39.829 35.5898 39.9697C35.4492 40.1103 35.3702 40.3011 35.3702 40.5C35.3702 40.6989 35.4492 40.8897 35.5898 41.0303C35.7305 41.171 35.9212 41.25 36.1202 41.25H37.9652C38.1641 41.25 38.3548 41.171 38.4955 41.0303C38.6361 40.8897 38.7152 40.6989 38.7152 40.5C38.7152 40.3011 38.6361 40.1103 38.4955 39.9697C38.3548 39.829 38.1641 39.75 37.9652 39.75Z" fill="#4A00E0"/>
</svg>
