<svg width="48" height="48" viewBox="0 0 48 48" fill="none" xmlns="http://www.w3.org/2000/svg">
<g clip-path="url(#clip0_1597_5713)">
<path d="M46.9551 31.0269C48.5305 25.8979 48.344 20.3891 46.4251 15.3784C44.5063 10.3677 40.9656 6.14335 36.3672 3.37856C31.7689 0.613765 26.3774 -0.532413 21.052 0.122662C15.7266 0.777737 10.7737 3.19637 6.98243 6.99316C3.1912 10.79 0.779823 15.7464 0.13255 21.0728C-0.514723 26.3992 0.639351 31.7889 3.41088 36.3832C6.1824 40.9775 10.4119 44.5121 15.4254 46.4235C20.4389 48.335 25.948 48.5135 31.0747 46.9305C33.2938 47.9371 35.7672 48.2428 38.1646 47.807C40.5621 47.3712 42.7696 46.2145 44.4925 44.4914C46.2154 42.7683 47.3718 40.5606 47.8074 38.1631C48.2429 35.7656 47.9369 33.2923 46.9301 31.0733C46.9366 31.0565 46.9497 31.0444 46.9551 31.0269ZM36.0002 46.5C33.9235 46.5 31.8934 45.8842 30.1667 44.7305C28.44 43.5767 27.0942 41.9368 26.2995 40.0182C25.5048 38.0996 25.2968 35.9884 25.702 33.9516C26.1071 31.9148 27.1071 30.0439 28.5756 28.5754C30.0441 27.107 31.915 26.1069 33.9518 25.7018C35.9886 25.2966 38.0998 25.5046 40.0184 26.2993C41.937 27.094 43.5769 28.4398 44.7307 30.1665C45.8844 31.8933 46.5002 33.9233 46.5002 36C46.4971 38.7838 45.3899 41.4528 43.4214 43.4212C41.4529 45.3897 38.784 46.4969 36.0002 46.5ZM13.3933 34.607C13.3237 34.5373 13.241 34.4821 13.15 34.4444C13.059 34.4067 12.9615 34.3873 12.863 34.3873C12.7646 34.3873 12.667 34.4067 12.5761 34.4444C12.4851 34.4821 12.4024 34.5373 12.3328 34.607L10.7733 36.1664C7.88988 33.0436 6.21144 28.9969 6.03821 24.75H8.25022C8.44913 24.75 8.6399 24.671 8.78055 24.5304C8.9212 24.3897 9.00022 24.1989 9.00022 24C9.00022 23.8011 8.9212 23.6104 8.78055 23.4697C8.6399 23.329 8.44913 23.25 8.25022 23.25H6.03821C6.21144 19.0032 7.88988 14.9564 10.7733 11.8337L12.3327 13.3931C12.4739 13.5314 12.6638 13.6084 12.8614 13.6074C13.059 13.6064 13.2482 13.5275 13.3879 13.3878C13.5276 13.2481 13.6066 13.0589 13.6075 12.8613C13.6085 12.6637 13.5315 12.4737 13.3932 12.3326L11.8339 10.7731C14.9566 7.88969 19.0034 6.21125 23.2502 6.03802V8.25003C23.2502 8.44894 23.3292 8.63971 23.4699 8.78036C23.6105 8.92101 23.8013 9.00003 24.0002 9.00003C24.1991 9.00003 24.3899 8.92101 24.5306 8.78036C24.6712 8.63971 24.7502 8.44894 24.7502 8.25003V6.03802C28.9971 6.21125 33.0438 7.88969 36.1666 10.7731L34.6072 12.3326C34.5364 12.4019 34.48 12.4846 34.4414 12.5759C34.4028 12.6672 34.3826 12.7653 34.3821 12.8644C34.3816 12.9635 34.4008 13.0617 34.4385 13.1534C34.4762 13.2451 34.5317 13.3283 34.6018 13.3984C34.6719 13.4685 34.7551 13.524 34.8468 13.5617C34.9385 13.5994 35.0367 13.6186 35.1358 13.6181C35.235 13.6176 35.333 13.5974 35.4243 13.5588C35.5156 13.5202 35.5983 13.4638 35.6677 13.3931L37.2271 11.8337C40.2938 15.1431 41.9984 19.4881 42.0002 24C42.0002 24.5258 41.9695 25.0524 41.9239 25.5773C39.6418 24.2739 36.9945 23.757 34.3897 24.1062C31.7849 24.4554 29.3672 25.6513 27.509 27.5098C25.6508 29.3682 24.4551 31.786 24.1062 34.3909C23.7573 36.9957 24.2746 39.6429 25.5782 41.9249C25.0537 41.9705 24.5269 42 24.0002 42C19.4883 41.9983 15.1433 40.2936 11.8339 37.2269L13.3933 35.6675C13.4629 35.5979 13.5182 35.5152 13.5559 35.4242C13.5936 35.3333 13.613 35.2357 13.613 35.1372C13.613 35.0387 13.5936 34.9412 13.5559 34.8502C13.5182 34.7593 13.4629 34.6766 13.3933 34.607ZM45.8858 29.2123C45.1778 28.189 44.316 27.2811 43.3309 26.5208C43.4409 25.685 43.4975 24.843 43.5002 24C43.5029 18.8487 41.4604 13.907 37.8215 10.2607C37.8084 10.2453 37.8034 10.226 37.7888 10.2114C37.7742 10.1969 37.7549 10.1919 37.7395 10.1788C34.0918 6.54213 29.151 4.50002 24.0002 4.50002C18.8494 4.50002 13.9086 6.54213 10.2609 10.1788C10.2455 10.1919 10.2262 10.1969 10.2116 10.2114C10.1971 10.226 10.192 10.2453 10.1789 10.2607C6.54232 13.9084 4.50021 18.8492 4.50021 24C4.50021 29.1509 6.54232 34.0916 10.1789 37.7393C10.192 37.7547 10.1971 37.774 10.2116 37.7886C10.2262 37.8032 10.2455 37.8082 10.2609 37.8213C13.9071 41.4602 18.8489 43.5027 24.0002 43.5C24.8423 43.4961 25.6832 43.4381 26.5178 43.3265C27.2806 44.3159 28.1921 45.181 29.2199 45.8911C24.4494 47.0328 19.4365 46.5857 14.9433 44.6179C10.45 42.6501 6.72202 39.2692 4.32594 34.9889C1.92985 30.7087 0.996673 25.7632 1.66823 20.9042C2.33978 16.0451 4.57935 11.5381 8.04656 8.06823C11.5138 4.59834 16.019 2.35529 20.8776 1.67997C25.7361 1.00466 30.6823 1.93401 34.9644 4.32678C39.2465 6.71955 42.6303 10.4449 44.6016 14.9366C46.5728 19.4284 47.0238 24.4409 45.8858 29.2123L45.8858 29.2123ZM16.5002 24.75H21.8884C22.0142 25.108 22.2288 25.4283 22.5121 25.6808C22.7953 25.9333 23.1379 26.11 23.508 26.1941C23.878 26.2783 24.2633 26.2673 24.6279 26.1621C24.9925 26.0569 25.3245 25.861 25.5928 25.5926C25.8612 25.3243 26.0571 24.9923 26.1623 24.6277C26.2674 24.2631 26.2785 23.8778 26.1943 23.5078C26.1101 23.1377 25.9335 22.7951 25.681 22.5119C25.4284 22.2286 25.1082 22.014 24.7502 21.8882V12.75C24.7502 12.5511 24.6712 12.3604 24.5306 12.2197C24.3899 12.079 24.1991 12 24.0002 12C23.8013 12 23.6105 12.079 23.4699 12.2197C23.3292 12.3604 23.2502 12.5511 23.2502 12.75V21.8882C22.9365 22.0001 22.6515 22.1803 22.416 22.4158C22.1805 22.6513 22.0002 22.9363 21.8884 23.25H16.5002C16.3013 23.25 16.1105 23.329 15.9699 23.4697C15.8292 23.6104 15.7502 23.8011 15.7502 24C15.7502 24.1989 15.8292 24.3897 15.9699 24.5304C16.1105 24.671 16.3013 24.75 16.5002 24.75ZM24.0002 23.25C24.1486 23.25 24.2936 23.294 24.4169 23.3764C24.5402 23.4588 24.6364 23.576 24.6931 23.713C24.7499 23.8501 24.7647 24.0009 24.7358 24.1464C24.7069 24.2918 24.6354 24.4255 24.5306 24.5304C24.4257 24.6353 24.292 24.7067 24.1465 24.7356C24.0011 24.7646 23.8503 24.7497 23.7132 24.6929C23.5762 24.6362 23.459 24.54 23.3766 24.4167C23.2942 24.2934 23.2502 24.1484 23.2502 24C23.2504 23.8012 23.3294 23.6105 23.47 23.4698C23.6107 23.3292 23.8013 23.2502 24.0002 23.25ZM36.0002 33C35.4069 33 34.8269 33.176 34.3335 33.5056C33.8402 33.8353 33.4556 34.3038 33.2286 34.852C33.0015 35.4002 32.9421 36.0034 33.0579 36.5853C33.1736 37.1672 33.4593 37.7018 33.8789 38.1214C34.2985 38.5409 34.833 38.8266 35.415 38.9424C35.9969 39.0581 36.6001 38.9987 37.1483 38.7717C37.6964 38.5446 38.165 38.1601 38.4946 37.6667C38.8243 37.1734 39.0002 36.5934 39.0002 36C38.9994 35.2046 38.6831 34.442 38.1207 33.8796C37.5582 33.3172 36.7956 33.0008 36.0002 33ZM36.0002 37.5C35.7035 37.5 35.4135 37.4121 35.1669 37.2472C34.9202 37.0824 34.7279 36.8481 34.6144 36.5741C34.5009 36.3 34.4712 35.9984 34.529 35.7074C34.5869 35.4164 34.7298 35.1491 34.9396 34.9394C35.1493 34.7296 35.4166 34.5867 35.7076 34.5289C35.9986 34.471 36.3002 34.5007 36.5742 34.6142C36.8483 34.7277 37.0826 34.92 37.2474 35.1667C37.4123 35.4133 37.5002 35.7034 37.5002 36C37.4997 36.3977 37.3415 36.7789 37.0603 37.0601C36.7791 37.3413 36.3979 37.4995 36.0002 37.5ZM41.9585 32.7312L42.6023 31.8113C42.7033 31.6669 42.7502 31.4915 42.7348 31.3159C42.7194 31.1403 42.6427 30.9757 42.5181 30.8511L41.1492 29.4822C41.0245 29.3576 40.8599 29.2809 40.6844 29.2655C40.5088 29.2501 40.3334 29.297 40.1889 29.398L39.269 30.0418C38.8354 29.8021 38.3765 29.6113 37.9009 29.4727L37.706 28.3697C37.6755 28.1961 37.5847 28.0388 37.4497 27.9255C37.3146 27.8121 37.144 27.75 36.9677 27.75H35.0327C34.8564 27.75 34.6858 27.8121 34.5508 27.9255C34.4158 28.0388 34.325 28.1961 34.2944 28.3697L34.0996 29.4727C33.6239 29.6113 33.1651 29.8021 32.7315 30.0418L31.8115 29.398C31.6669 29.2975 31.4916 29.251 31.3162 29.2664C31.1408 29.2817 30.9763 29.3581 30.8513 29.4822L29.4824 30.8511C29.3578 30.9757 29.281 31.1403 29.2656 31.3159C29.2502 31.4915 29.2972 31.6669 29.3982 31.8113L30.042 32.7312C29.8023 33.1649 29.6115 33.6237 29.4729 34.0994L28.3699 34.2942C28.1963 34.3248 28.039 34.4155 27.9257 34.5506C27.8123 34.6856 27.7502 34.8562 27.7502 35.0325V36.9675C27.7502 37.1438 27.8123 37.3144 27.9257 37.4495C28.039 37.5845 28.1963 37.6753 28.3699 37.7058L29.4729 37.9006C29.6115 38.3763 29.8023 38.8352 30.042 39.2688L29.3982 40.1887C29.2971 40.3332 29.2502 40.5086 29.2656 40.6841C29.281 40.8597 29.3578 41.0243 29.4824 41.1489L30.8513 42.5178C30.9761 42.6422 31.1406 42.7188 31.3161 42.7342C31.4916 42.7496 31.667 42.7028 31.8115 42.6021L32.7314 41.9583C33.1651 42.1979 33.6239 42.3888 34.0996 42.5273L34.2944 43.6304C34.325 43.804 34.4157 43.9613 34.5508 44.0746C34.6858 44.1879 34.8564 44.25 35.0327 44.25H36.9677C37.144 44.25 37.3146 44.1879 37.4497 44.0746C37.5847 43.9613 37.6754 43.804 37.706 43.6304L37.9008 42.5274C38.3765 42.3888 38.8354 42.1979 39.269 41.9583L40.1889 42.6021C40.3334 42.7031 40.5088 42.75 40.6843 42.7346C40.8599 42.7192 41.0245 42.6425 41.1491 42.5179L42.518 41.149C42.6427 41.0243 42.7194 40.8598 42.7348 40.6842C42.7502 40.5086 42.7033 40.3332 42.6022 40.1888L41.9584 39.2688C42.1981 38.8352 42.389 38.3763 42.5275 37.9007L43.6306 37.7058C43.8042 37.6753 43.9615 37.5845 44.0748 37.4495C44.1881 37.3145 44.2502 37.1438 44.2502 36.9675V35.0325C44.2502 34.8563 44.1881 34.6856 44.0748 34.5506C43.9615 34.4156 43.8042 34.3248 43.6306 34.2942L42.5276 34.0994C42.389 33.6237 42.1981 33.1649 41.9585 32.7312ZM42.7502 36.3384L41.7878 36.5083C41.6403 36.5342 41.5039 36.6037 41.3963 36.7079C41.2887 36.8121 41.2149 36.9462 41.1843 37.0928C41.0498 37.7333 40.7964 38.343 40.4373 38.8902C40.3553 39.0155 40.3127 39.1625 40.3151 39.3122C40.3174 39.462 40.3646 39.6076 40.4505 39.7303L41.0123 40.533L40.5333 41.012L39.7305 40.4502C39.6077 40.3647 39.4621 40.3177 39.3125 40.3154C39.1628 40.313 39.0159 40.3554 38.8904 40.4371C38.3432 40.7962 37.7336 41.0495 37.0931 41.1841C36.9464 41.2146 36.8124 41.2885 36.7082 41.3961C36.604 41.5037 36.5344 41.64 36.5086 41.7876L36.3387 42.75H35.6619L35.492 41.7876C35.4661 41.64 35.3966 41.5037 35.2924 41.3961C35.1882 41.2885 35.0541 41.2146 34.9075 41.1841C34.267 41.0495 33.6573 40.7962 33.1102 40.4371C32.9847 40.3554 32.8378 40.3131 32.6881 40.3154C32.5384 40.3178 32.3929 40.3647 32.2701 40.4502L31.4673 41.012L30.9883 40.533L31.5501 39.7303C31.636 39.6076 31.6831 39.462 31.6855 39.3122C31.6878 39.1625 31.6453 39.0155 31.5633 38.8902C31.2042 38.343 30.9508 37.7333 30.8163 37.0928C30.7857 36.9462 30.7118 36.8121 30.6042 36.7079C30.4967 36.6037 30.3603 36.5342 30.2128 36.5083L29.2502 36.3384V35.6617L30.2126 35.4917C30.3601 35.4659 30.4965 35.3964 30.6041 35.2922C30.7117 35.188 30.7856 35.0539 30.8161 34.9073C30.9506 34.2667 31.204 33.6571 31.5631 33.1099C31.6451 32.9846 31.6877 32.8376 31.6854 32.6878C31.683 32.5381 31.6358 32.3925 31.5499 32.2698L30.9882 31.4671L31.4672 30.9881L32.2699 31.5498C32.3926 31.6357 32.5382 31.6829 32.688 31.6852C32.8377 31.6876 32.9847 31.645 33.11 31.563C33.6572 31.2039 34.2669 30.9505 34.9074 30.816C35.054 30.7854 35.1881 30.7116 35.2923 30.604C35.3965 30.4964 35.466 30.36 35.4919 30.2125L35.6618 29.2501H36.3385L36.5084 30.2125C36.5343 30.36 36.6038 30.4964 36.708 30.604C36.8122 30.7116 36.9463 30.7854 37.0929 30.816C37.7335 30.9505 38.3431 31.2039 38.8903 31.563C39.0156 31.645 39.1626 31.6876 39.3124 31.6852C39.4621 31.6829 39.6077 31.6357 39.7304 31.5498L40.5331 30.9881L41.0121 31.4671L40.4504 32.2698C40.3645 32.3925 40.3173 32.5381 40.315 32.6878C40.3126 32.8376 40.3552 32.9846 40.4372 33.1099C40.7963 33.6571 41.0497 34.2667 41.1842 34.9073C41.2147 35.0539 41.2886 35.188 41.3962 35.2922C41.5038 35.3964 41.6402 35.4659 41.7877 35.4917L42.7501 35.6617L42.7502 36.3384Z" fill="#4A00E0"/>
</g>
<defs>
<clipPath id="clip0_1597_5713">
<rect width="48" height="48" fill="white"/>
</clipPath>
</defs>
</svg>
