<svg width="48" height="48" viewBox="0 0 48 48" fill="none" xmlns="http://www.w3.org/2000/svg">
<g clip-path="url(#clip0_1597_5706)">
<path d="M33.75 0H14.25C13.2554 0 12.3016 0.395088 11.5983 1.09835C10.8951 1.80161 10.5 2.75544 10.5 3.75V44.25C10.5 45.2446 10.8951 46.1984 11.5983 46.9016C12.3016 47.6049 13.2554 48 14.25 48H33.75C34.7446 48 35.6984 47.6049 36.4016 46.9016C37.1049 46.1984 37.5 45.2446 37.5 44.25V3.75C37.5 2.75544 37.1049 1.80161 36.4016 1.09835C35.6984 0.395088 34.7446 0 33.75 0V0ZM36 44.25C36 44.8467 35.7629 45.419 35.341 45.841C34.919 46.2629 34.3467 46.5 33.75 46.5H14.25C13.6533 46.5 13.081 46.2629 12.659 45.841C12.2371 45.419 12 44.8467 12 44.25V39H36V44.25ZM36 37.5H12V7.5H36V37.5ZM36 6H12V3.75C12 3.15326 12.2371 2.58097 12.659 2.15901C13.081 1.73705 13.6533 1.5 14.25 1.5H33.75C34.3467 1.5 34.919 1.73705 35.341 2.15901C35.7629 2.58097 36 3.15326 36 3.75V6ZM24 45C24.445 45 24.88 44.868 25.25 44.6208C25.62 44.3736 25.9084 44.0222 26.0787 43.611C26.249 43.1999 26.2936 42.7475 26.2068 42.311C26.12 41.8746 25.9057 41.4737 25.591 41.159C25.2763 40.8443 24.8754 40.6301 24.439 40.5432C24.0025 40.4564 23.5501 40.501 23.139 40.6713C22.7278 40.8416 22.3764 41.13 22.1292 41.5C21.882 41.87 21.75 42.305 21.75 42.75C21.75 43.3467 21.9871 43.919 22.409 44.341C22.831 44.7629 23.4033 45 24 45ZM24 42C24.1483 42 24.2933 42.044 24.4167 42.1264C24.54 42.2088 24.6361 42.3259 24.6929 42.463C24.7497 42.6 24.7645 42.7508 24.7356 42.8963C24.7066 43.0418 24.6352 43.1754 24.5303 43.2803C24.4254 43.3852 24.2918 43.4566 24.1463 43.4856C24.0008 43.5145 23.85 43.4997 23.713 43.4429C23.5759 43.3861 23.4588 43.29 23.3764 43.1667C23.294 43.0433 23.25 42.8983 23.25 42.75C23.25 42.5511 23.329 42.3603 23.4697 42.2197C23.6103 42.079 23.8011 42 24 42ZM24 3C23.8517 3 23.7067 3.04399 23.5833 3.1264C23.46 3.20881 23.3639 3.32594 23.3071 3.46299C23.2503 3.60003 23.2355 3.75083 23.2644 3.89632C23.2934 4.0418 23.3648 4.17544 23.4697 4.28033C23.5746 4.38522 23.7082 4.45665 23.8537 4.48559C23.9992 4.51453 24.15 4.49968 24.287 4.44291C24.4241 4.38614 24.5412 4.29001 24.6236 4.16668C24.706 4.04334 24.75 3.89834 24.75 3.75C24.75 3.55109 24.671 3.36032 24.5303 3.21967C24.3897 3.07902 24.1989 3 24 3ZM15.75 27H32.25C32.8467 27 33.419 26.7629 33.841 26.341C34.2629 25.919 34.5 25.3467 34.5 24.75V23.25C34.5 22.6533 34.2629 22.081 33.841 21.659C33.419 21.2371 32.8467 21 32.25 21H15.75C15.1533 21 14.581 21.2371 14.159 21.659C13.7371 22.081 13.5 22.6533 13.5 23.25V24.75C13.5 25.3467 13.7371 25.919 14.159 26.341C14.581 26.7629 15.1533 27 15.75 27ZM15 23.25C15 23.0511 15.079 22.8603 15.2197 22.7197C15.3603 22.579 15.5511 22.5 15.75 22.5H32.25C32.4489 22.5 32.6397 22.579 32.7803 22.7197C32.921 22.8603 33 23.0511 33 23.25V24.75C33 24.9489 32.921 25.1397 32.7803 25.2803C32.6397 25.421 32.4489 25.5 32.25 25.5H15.75C15.5511 25.5 15.3603 25.421 15.2197 25.2803C15.079 25.1397 15 24.9489 15 24.75V23.25ZM15.75 34.5H32.25C32.8467 34.5 33.419 34.2629 33.841 33.841C34.2629 33.419 34.5 32.8467 34.5 32.25V30.75C34.5 30.1533 34.2629 29.581 33.841 29.159C33.419 28.7371 32.8467 28.5 32.25 28.5H15.75C15.1533 28.5 14.581 28.7371 14.159 29.159C13.7371 29.581 13.5 30.1533 13.5 30.75V32.25C13.5 32.8467 13.7371 33.419 14.159 33.841C14.581 34.2629 15.1533 34.5 15.75 34.5ZM15 30.75C15 30.5511 15.079 30.3603 15.2197 30.2197C15.3603 30.079 15.5511 30 15.75 30H32.25C32.4489 30 32.6397 30.079 32.7803 30.2197C32.921 30.3603 33 30.5511 33 30.75V32.25C33 32.4489 32.921 32.6397 32.7803 32.7803C32.6397 32.921 32.4489 33 32.25 33H15.75C15.5511 33 15.3603 32.921 15.2197 32.7803C15.079 32.6397 15 32.4489 15 32.25V30.75ZM24 19.5C24.89 19.5 25.76 19.2361 26.5001 18.7416C27.2401 18.2471 27.8169 17.5443 28.1575 16.7221C28.4981 15.8998 28.5872 14.995 28.4135 14.1221C28.2399 13.2492 27.8113 12.4474 27.182 11.818C26.5526 11.1887 25.7508 10.7601 24.8779 10.5865C24.005 10.4128 23.1002 10.5019 22.2779 10.8425C21.4557 11.1831 20.7529 11.7599 20.2584 12.4999C19.7639 13.24 19.5 14.11 19.5 15C19.5 16.1935 19.9741 17.3381 20.818 18.182C21.6619 19.0259 22.8065 19.5 24 19.5ZM24 12C24.5933 12 25.1734 12.1759 25.6667 12.5056C26.1601 12.8352 26.5446 13.3038 26.7716 13.8519C26.9987 14.4001 27.0581 15.0033 26.9424 15.5853C26.8266 16.1672 26.5409 16.7018 26.1213 17.1213C25.7018 17.5409 25.1672 17.8266 24.5853 17.9424C24.0033 18.0581 23.4001 17.9987 22.8519 17.7716C22.3038 17.5446 21.8352 17.1601 21.5056 16.6667C21.1759 16.1734 21 15.5933 21 15C21 14.2044 21.3161 13.4413 21.8787 12.8787C22.4413 12.3161 23.2044 12 24 12Z" fill="#4A00E0"/>
</g>
<defs>
<clipPath id="clip0_1597_5706">
<rect width="48" height="48" fill="white"/>
</clipPath>
</defs>
</svg>
