<svg width="48" height="48" viewBox="0 0 48 48" fill="none" xmlns="http://www.w3.org/2000/svg">
<path d="M34.5 1.5H13.5C12.3069 1.50119 11.163 1.97568 10.3193 2.81934C9.47568 3.66299 9.00119 4.80689 9 6V42C9.00119 43.1931 9.47568 44.337 10.3193 45.1807C11.163 46.0243 12.3069 46.4988 13.5 46.5H34.5C35.6931 46.4988 36.837 46.0243 37.6807 45.1807C38.5243 44.337 38.9988 43.1931 39 42V6C38.9988 4.80689 38.5243 3.66299 37.6807 2.81934C36.837 1.97568 35.6931 1.50119 34.5 1.5ZM37.5 42C37.5 42.7957 37.1839 43.5587 36.6213 44.1213C36.0587 44.6839 35.2956 45 34.5 45H13.5C12.7044 45 11.9413 44.6839 11.3787 44.1213C10.8161 43.5587 10.5 42.7957 10.5 42V6C10.5 5.20435 10.8161 4.44129 11.3787 3.87868C11.9413 3.31607 12.7044 3 13.5 3H34.5C35.2956 3 36.0587 3.31607 36.6213 3.87868C37.1839 4.44129 37.5 5.20435 37.5 6V42Z" fill="#4A00E0"/>
<path d="M25.5 39H22.5C21.9033 39 21.331 39.2371 20.909 39.659C20.4871 40.081 20.25 40.6533 20.25 41.25C20.25 41.8467 20.4871 42.419 20.909 42.841C21.331 43.2629 21.9033 43.5 22.5 43.5H25.5C26.0967 43.5 26.669 43.2629 27.091 42.841C27.5129 42.419 27.75 41.8467 27.75 41.25C27.75 40.6533 27.5129 40.081 27.091 39.659C26.669 39.2371 26.0967 39 25.5 39ZM25.5 42H22.5C22.3011 42 22.1103 41.921 21.9697 41.7803C21.829 41.6397 21.75 41.4489 21.75 41.25C21.75 41.0511 21.829 40.8603 21.9697 40.7197C22.1103 40.579 22.3011 40.5 22.5 40.5H25.5C25.6989 40.5 25.8897 40.579 26.0303 40.7197C26.171 40.8603 26.25 41.0511 26.25 41.25C26.25 41.4489 26.171 41.6397 26.0303 41.7803C25.8897 41.921 25.6989 42 25.5 42ZM18.75 4.5H20.25V6H18.75V4.5ZM21.75 4.5H26.25V6H21.75V4.5ZM16.5 18.75H19.5C19.6989 18.75 19.8897 18.671 20.0303 18.5303C20.171 18.3897 20.25 18.1989 20.25 18V15C20.25 14.8011 20.171 14.6103 20.0303 14.4697C19.8897 14.329 19.6989 14.25 19.5 14.25H16.5C16.3011 14.25 16.1103 14.329 15.9697 14.4697C15.829 14.6103 15.75 14.8011 15.75 15V18C15.75 18.1989 15.829 18.3897 15.9697 18.5303C16.1103 18.671 16.3011 18.75 16.5 18.75ZM17.25 15.75H18.75V17.25H17.25V15.75ZM31.5 14.25H28.5C28.3011 14.25 28.1103 14.329 27.9697 14.4697C27.829 14.6103 27.75 14.8011 27.75 15V18C27.75 18.1989 27.829 18.3897 27.9697 18.5303C28.1103 18.671 28.3011 18.75 28.5 18.75H31.5C31.6989 18.75 31.8897 18.671 32.0303 18.5303C32.171 18.3897 32.25 18.1989 32.25 18V15C32.25 14.8011 32.171 14.6103 32.0303 14.4697C31.8897 14.329 31.6989 14.25 31.5 14.25ZM30.75 17.25H29.25V15.75H30.75V17.25ZM20.25 27C20.25 26.8011 20.171 26.6103 20.0303 26.4697C19.8897 26.329 19.6989 26.25 19.5 26.25H16.5C16.3011 26.25 16.1103 26.329 15.9697 26.4697C15.829 26.6103 15.75 26.8011 15.75 27V30C15.75 30.1989 15.829 30.3897 15.9697 30.5303C16.1103 30.671 16.3011 30.75 16.5 30.75H19.5C19.6989 30.75 19.8897 30.671 20.0303 30.5303C20.171 30.3897 20.25 30.1989 20.25 30V27ZM18.75 29.25H17.25V27.75H18.75V29.25ZM17.25 23.25H18.75V24.75H20.25V23.25H22.5V21.75H21V20.25H19.5V21.75H17.25V20.25H15.75V24.75H17.25V23.25ZM30.75 29.25H29.25V30.75H31.5C31.6989 30.75 31.8897 30.671 32.0303 30.5303C32.171 30.3897 32.25 30.1989 32.25 30V27.75H30.75V29.25ZM25.5 27.75H26.25V26.25H25.5V24H24V26.25H21.75V27.75H24V29.25H21.75V30.75H27.75V29.25H25.5V27.75ZM30.75 20.25H32.25V26.25H30.75V20.25ZM24 21H26.25V22.5H24V21ZM27.75 26.25H29.25V27.75H27.75V26.25ZM23.25 19.5H24.75V18.75H26.25V17.25H24.75V15.75H26.25V14.25H21.75V15.75H23.25V19.5ZM27.75 21H29.25V24.75H27.75V21Z" fill="#4A00E0"/>
</svg>
