<svg width="48" height="48" viewBox="0 0 48 48" fill="none" xmlns="http://www.w3.org/2000/svg">
<path d="M39.7243 45.1173H8.27606C5.75932 45.1173 3.71055 43.0686 3.71055 40.5518V22.3449C3.71055 19.8282 5.75932 17.7794 8.27606 17.7794H39.7243C42.2411 17.7794 44.2899 19.8282 44.2899 22.3449V40.5518C44.2899 43.0686 42.2411 45.1173 39.7243 45.1173ZM8.27606 20.2897C7.14315 20.2897 6.22089 21.212 6.22089 22.3449V40.5518C6.22089 41.6847 7.14315 42.607 8.27606 42.607H39.7243C40.8573 42.607 41.7795 41.6847 41.7795 40.5518V22.3449C41.7795 21.212 40.8573 20.2897 39.7243 20.2897H8.27606Z" fill="#4A00E0" stroke="white" stroke-width="0.8"/>
<path d="M11.5858 4.5377H36.4134C36.7463 4.5377 37.0656 4.66994 37.301 4.90533C37.5364 5.14072 37.6686 5.45997 37.6686 5.79287C37.6686 6.12576 37.5364 6.44502 37.301 6.68041C37.0656 6.9158 36.7463 7.04804 36.4134 7.04804H11.5858C11.2529 7.04804 10.9337 6.9158 10.6983 6.68041C10.4629 6.44502 10.3307 6.12576 10.3307 5.79287C10.3307 5.45998 10.4629 5.14072 10.6983 4.90533C10.9337 4.66994 11.2529 4.5377 11.5858 4.5377Z" fill="#4A00E0" stroke="white" stroke-width="0.8"/>
<path d="M8.27627 11.1588H39.7245C40.0574 11.1588 40.3767 11.291 40.6121 11.5264C40.8475 11.7618 40.9797 12.0811 40.9797 12.414C40.9797 12.7469 40.8475 13.0661 40.6121 13.3015C40.3767 13.5369 40.0574 13.6691 39.7245 13.6691H8.27627C7.94337 13.6691 7.62412 13.5369 7.38873 13.3015C7.15333 13.0661 7.02109 12.7469 7.02109 12.414C7.02109 12.0811 7.15333 11.7618 7.38873 11.5264C7.62412 11.291 7.94337 11.1588 8.27627 11.1588Z" fill="#4A00E0" stroke="white" stroke-width="0.8"/>
</svg>
