<svg width="48" height="48" viewBox="0 0 48 48" fill="none" xmlns="http://www.w3.org/2000/svg">
<path d="M27.5475 23.25H10.5C10.3011 23.25 10.1103 23.329 9.96967 23.4697C9.82902 23.6103 9.75 23.8011 9.75 24C9.75 24.1989 9.82902 24.3897 9.96967 24.5303C10.1103 24.671 10.3011 24.75 10.5 24.75H26.25L27.5475 23.25ZM30.1763 20.25H10.5C10.3011 20.25 10.1103 20.329 9.96967 20.4697C9.82902 20.6103 9.75 20.8011 9.75 21C9.75 21.1989 9.82902 21.3897 9.96967 21.5303C10.1103 21.671 10.3011 21.75 10.5 21.75H28.875L30.1763 20.25Z" fill="#4A00E0"/>
<path d="M35.25 45.75C35.25 45.9489 35.171 46.1397 35.0303 46.2803C34.8897 46.421 34.6989 46.5 34.5 46.5H6.75C6.55109 46.5 6.36032 46.421 6.21967 46.2803C6.07902 46.1397 6 45.9489 6 45.75V2.25C6 2.05109 6.07902 1.86032 6.21967 1.71967C6.36032 1.57902 6.55109 1.5 6.75 1.5H23.25V10.125C23.25 11.7825 24.2175 12.75 25.875 12.75H35.25V14.46L35.625 14.025C35.9408 13.6666 36.3228 13.3725 36.75 13.1588V12.075L23.9212 0H6.75C6.15326 0 5.58097 0.237053 5.15901 0.65901C4.73705 1.08097 4.5 1.65326 4.5 2.25V45.75C4.5 46.3467 4.73705 46.919 5.15901 47.341C5.58097 47.7629 6.15326 48 6.75 48H34.5C35.0967 48 35.669 47.7629 36.091 47.341C36.5129 46.919 36.75 46.3467 36.75 45.75V29.7562L35.25 31.4663V45.75ZM24.75 10.125V2.8575L33.6825 11.25H25.875C25.0462 11.25 24.75 10.9537 24.75 10.125Z" fill="#4A00E0"/>
<path d="M43.5001 18.7913C43.483 18.4981 43.4079 18.2113 43.2791 17.9474C43.1504 17.6834 42.9706 17.4477 42.7501 17.2538L39.9413 14.8013C39.7194 14.6034 39.4604 14.4515 39.1794 14.3543C38.8985 14.2572 38.601 14.2167 38.3043 14.2351C38.0075 14.2536 37.7174 14.3307 37.4506 14.462C37.1838 14.5933 36.9457 14.7761 36.7501 15L18.5813 35.7563C18.5048 35.8436 18.4496 35.9476 18.4201 36.06L16.5263 43.3125C16.4909 43.4473 16.4937 43.5892 16.5345 43.7225C16.5753 43.8557 16.6523 43.975 16.7571 44.0669C16.8618 44.1588 16.9901 44.2197 17.1275 44.2427C17.2649 44.2658 17.4061 44.2501 17.5351 44.1975L24.4838 41.3588C24.5917 41.3152 24.688 41.2472 24.7651 41.16L42.9451 20.4188C43.1412 20.198 43.2912 19.9404 43.3865 19.6609C43.4818 19.3815 43.5204 19.0858 43.5001 18.7913ZM19.6088 37.44L23.0588 40.3163L18.3526 42.2363L19.6088 37.44ZM24.3076 39.4013L20.3026 36.0638L35.7751 18.4125L39.7801 21.75L24.3076 39.4013ZM41.8201 19.425L40.7701 20.625L36.7501 17.2838L37.8751 16.0013C38.0057 15.8539 38.189 15.7639 38.3855 15.7505C38.5819 15.7372 38.7757 15.8017 38.9251 15.93L41.7488 18.375C41.894 18.5054 41.9826 18.6872 41.9959 18.8818C42.0092 19.0764 41.9461 19.2686 41.8201 19.4175V19.425ZM11.5276 10.5713C10.873 10.9249 10.327 11.4498 9.9478 12.0899C9.56864 12.7299 9.37067 13.4611 9.37507 14.205V17.25C9.37507 17.4489 9.45409 17.6397 9.59474 17.7803C9.73539 17.921 9.92616 18 10.1251 18C10.324 18 10.5147 17.921 10.6554 17.7803C10.7961 17.6397 10.8751 17.4489 10.8751 17.25V14.205C10.8661 13.672 11.0229 13.1493 11.3239 12.7093C11.6248 12.2693 12.0551 11.9336 12.5551 11.7488C12.1469 11.4187 11.7993 11.0203 11.5276 10.5713ZM20.6251 18C20.824 18 21.0147 17.921 21.1554 17.7803C21.2961 17.6397 21.3751 17.4489 21.3751 17.25V14.205C21.3802 13.4604 21.1825 12.7285 20.8033 12.0877C20.4241 11.4469 19.8777 10.9214 19.2226 10.5675C18.9512 11.0179 18.6035 11.4176 18.1951 11.7488C18.6951 11.9336 19.1253 12.2693 19.4263 12.7093C19.7272 13.1493 19.8841 13.672 19.8751 14.205V17.25C19.8751 17.4489 19.9541 17.6397 20.0947 17.7803C20.2354 17.921 20.4262 18 20.6251 18ZM15.3751 5.25C14.7817 5.25 14.2017 5.42595 13.7084 5.75559C13.215 6.08524 12.8305 6.55377 12.6034 7.10195C12.3764 7.65013 12.317 8.25333 12.4327 8.83527C12.5485 9.41721 12.8342 9.95176 13.2538 10.3713C13.6733 10.7909 14.2079 11.0766 14.7898 11.1924C15.3717 11.3081 15.9749 11.2487 16.5231 11.0216C17.0713 10.7946 17.5398 10.4101 17.8695 9.91671C18.1991 9.42336 18.3751 8.84334 18.3751 8.25C18.3751 7.45435 18.059 6.69129 17.4964 6.12868C16.9338 5.56607 16.1707 5.25 15.3751 5.25ZM15.3751 9.75C15.0784 9.75 14.7884 9.66203 14.5417 9.4972C14.295 9.33238 14.1028 9.09811 13.9893 8.82403C13.8757 8.54994 13.846 8.24834 13.9039 7.95736C13.9618 7.66639 14.1046 7.39912 14.3144 7.18934C14.5242 6.97956 14.7915 6.8367 15.0824 6.77882C15.3734 6.72094 15.675 6.75065 15.9491 6.86418C16.2232 6.97771 16.4575 7.16997 16.6223 7.41665C16.7871 7.66332 16.8751 7.95333 16.8751 8.25C16.8751 8.64783 16.717 9.02936 16.4357 9.31066C16.1544 9.59196 15.7729 9.75 15.3751 9.75ZM24.9151 26.25H10.5001C10.3012 26.25 10.1104 26.329 9.96974 26.4697C9.82909 26.6103 9.75007 26.8011 9.75007 27C9.75007 27.1989 9.82909 27.3897 9.96974 27.5303C10.1104 27.671 10.3012 27.75 10.5001 27.75H23.6026L24.9151 26.25ZM22.2863 29.25H10.5001C10.3012 29.25 10.1104 29.329 9.96974 29.4697C9.82909 29.6103 9.75007 29.8011 9.75007 30C9.75007 30.1989 9.82909 30.3897 9.96974 30.5303C10.1104 30.671 10.3012 30.75 10.5001 30.75H20.9738L22.2863 29.25ZM19.6576 32.25H10.5001C10.3012 32.25 10.1104 32.329 9.96974 32.4697C9.82909 32.6103 9.75007 32.8011 9.75007 33C9.75007 33.1989 9.82909 33.3897 9.96974 33.5303C10.1104 33.671 10.3012 33.75 10.5001 33.75H18.3413L19.6576 32.25ZM16.9688 35.6813C17.0077 35.5324 17.0617 35.3879 17.1301 35.25H10.5001C10.3012 35.25 10.1104 35.329 9.96974 35.4697C9.82909 35.6103 9.75007 35.8011 9.75007 36C9.75007 36.1989 9.82909 36.3897 9.96974 36.5303C10.1104 36.671 10.3012 36.75 10.5001 36.75H16.6876L16.9688 35.6813ZM31.5001 36C31.4992 35.9275 31.4878 35.8555 31.4663 35.7863L30.6226 36.75H30.7501C30.949 36.75 31.1397 36.671 31.2804 36.5303C31.4211 36.3897 31.5001 36.1989 31.5001 36ZM9.75007 39C9.75007 39.1989 9.82909 39.3897 9.96974 39.5303C10.1104 39.671 10.3012 39.75 10.5001 39.75H15.9038L16.2788 38.25H10.5001C10.3012 38.25 10.1104 38.329 9.96974 38.4697C9.82909 38.6103 9.75007 38.8011 9.75007 39ZM31.5001 39C31.5001 38.8011 31.4211 38.6103 31.2804 38.4697C31.1397 38.329 30.949 38.25 30.7501 38.25H29.3063L27.9901 39.75H30.7501C30.949 39.75 31.1397 39.671 31.2804 39.5303C31.4211 39.3897 31.5001 39.1989 31.5001 39Z" fill="#4A00E0"/>
</svg>
