<svg width="48" height="48" viewBox="0 0 48 48" fill="none" xmlns="http://www.w3.org/2000/svg">
<g clip-path="url(#clip0_1597_5723)">
<path d="M13.3385 0.00244141C11.8719 0.00244141 10.6719 1.20244 10.6719 2.66911V45.3358C10.6719 46.8024 11.8719 48.0024 13.3385 48.0024H33.3385C34.8052 48.0024 36.0052 46.8024 36.0052 45.3358V19.9918C36.0925 19.9932 36.1791 19.9772 36.2601 19.9447C36.3411 19.9122 36.4148 19.8639 36.4769 19.8025C36.539 19.7412 36.5882 19.6681 36.6217 19.5875C36.6552 19.5069 36.6722 19.4204 36.6719 19.3331V18.0104C36.6731 17.9222 36.6568 17.8345 36.6238 17.7527C36.5908 17.6708 36.5419 17.5963 36.4799 17.5335C36.4178 17.4707 36.3439 17.4209 36.2624 17.3869C36.1809 17.353 36.0935 17.3356 36.0052 17.3358V17.3198C36.0925 17.3212 36.1791 17.3052 36.2601 17.2727C36.3411 17.2402 36.4148 17.1919 36.4769 17.1305C36.539 17.0692 36.5882 16.9961 36.6217 16.9155C36.6552 16.8349 36.6722 16.7484 36.6719 16.6611V15.3384C36.6729 15.2502 36.6565 15.1627 36.6234 15.0809C36.5904 14.9991 36.5415 14.9246 36.4795 14.8619C36.4175 14.7991 36.3436 14.7493 36.2622 14.7153C36.1808 14.6813 36.0934 14.6638 36.0052 14.6638V12.8438C36.1809 12.8389 36.3476 12.7651 36.4693 12.6384C36.591 12.5117 36.658 12.3422 36.6559 12.1664V11.3464C36.6587 11.1705 36.592 11.0006 36.4701 10.8737C36.3482 10.7469 36.1811 10.6733 36.0052 10.6691V2.66911C36.0052 1.20244 34.8052 0.00244141 33.3385 0.00244141H13.3385ZM13.3385 1.33577H33.3385C34.0892 1.33577 34.6719 1.91844 34.6719 2.66911V8.00244H12.0052V2.66911C12.0052 1.91844 12.5879 1.33577 13.3385 1.33577ZM20.6719 4.00244C20.4951 4.00244 20.3255 4.07268 20.2005 4.1977C20.0754 4.32273 20.0052 4.4923 20.0052 4.66911C20.0052 4.84592 20.0754 5.01549 20.2005 5.14051C20.3255 5.26554 20.4951 5.33577 20.6719 5.33577C20.8487 5.33577 21.0183 5.26554 21.1433 5.14051C21.2683 5.01549 21.3385 4.84592 21.3385 4.66911C21.3385 4.4923 21.2683 4.32273 21.1433 4.1977C21.0183 4.07268 20.8487 4.00244 20.6719 4.00244ZM23.3252 4.00244C22.4239 3.98911 22.4239 5.34911 23.3252 5.33577H26.0159C26.9172 5.34911 26.9172 3.98911 26.0159 4.00244H23.3252ZM12.0052 9.33578H34.6719V38.6691H12.0052V9.33578ZM23.3599 16.0024C22.2625 16.0024 21.3599 16.9051 21.3599 18.0024C21.3599 18.3718 21.4679 18.7144 21.6452 19.0131C20.7814 19.3601 20.0406 19.9566 19.5174 20.7265C18.9942 21.4965 18.7124 22.4049 18.7079 23.3358C18.7079 23.3358 18.6932 25.2838 18.6932 26.7451C18.6932 26.6718 18.6759 26.8091 18.5785 26.9718C18.4575 27.1637 18.3225 27.3464 18.1745 27.5184C17.8639 27.8851 17.5479 28.1851 17.5479 28.1851C17.4511 28.2768 17.384 28.3953 17.3553 28.5255C17.3266 28.6557 17.3376 28.7915 17.3868 28.9153C17.436 29.0392 17.5213 29.1455 17.6315 29.2204C17.7417 29.2954 17.8719 29.3356 18.0052 29.3358H20.7052C20.7041 29.743 20.7963 30.1451 20.9747 30.5112C21.1532 30.8773 21.4131 31.1977 21.7345 31.4478C22.6545 32.1544 23.9345 32.1851 24.8852 31.5211C25.6105 31.0144 26.0212 30.1878 26.0239 29.3358H28.6825C28.8158 29.3366 28.9462 29.2974 29.057 29.2234C29.1678 29.1494 29.2538 29.0438 29.3041 28.9204C29.3543 28.797 29.3664 28.6614 29.3388 28.531C29.3112 28.4007 29.2451 28.2816 29.1492 28.1891C29.1492 28.1891 28.8399 27.8891 28.5359 27.5211C28.3909 27.3487 28.2585 27.166 28.1399 26.9744C28.0439 26.8104 28.0265 26.6718 28.0265 26.7451C28.0265 25.5198 28.0412 23.3438 28.0412 23.3438C28.043 22.4057 27.7609 21.4891 27.2322 20.7143C26.7034 19.9395 25.9527 19.3427 25.0785 19.0024C25.2519 18.7064 25.3585 18.3678 25.3585 18.0024C25.3585 16.9051 24.4559 16.0024 23.3585 16.0024H23.3599ZM23.3599 17.3358C23.7359 17.3358 24.0265 17.6264 24.0265 18.0024C24.0265 18.3784 23.7359 18.6691 23.3599 18.6691C23.272 18.6704 23.1847 18.654 23.1033 18.6209C23.0218 18.5879 22.9478 18.5388 22.8857 18.4766C22.8235 18.4145 22.7745 18.3405 22.7414 18.259C22.7083 18.1776 22.692 18.0903 22.6932 18.0024C22.6932 17.6264 22.9825 17.3358 23.3599 17.3358ZM23.3745 20.0051C23.813 20.0016 24.2479 20.0853 24.6537 20.2514C25.0596 20.4175 25.4283 20.6626 25.7385 20.9726C26.0487 21.2825 26.2942 21.6511 26.4606 22.0568C26.627 22.4625 26.7111 22.8973 26.7079 23.3358C26.7079 23.3358 26.6932 25.5091 26.6932 26.7451C26.6932 27.1344 26.8399 27.3931 26.9919 27.6518C27.0665 27.7758 27.1572 27.8851 27.2425 28.0024H19.4665C19.5519 27.8878 19.6439 27.7824 19.7199 27.6584C19.8745 27.3998 20.0265 27.1384 20.0265 26.7451C20.0265 25.2918 20.0412 23.3438 20.0412 23.3438C20.0386 22.9052 20.1229 22.4704 20.2895 22.0646C20.456 21.6589 20.7014 21.2902 21.0114 20.9799C21.3215 20.6696 21.69 20.4239 22.0956 20.2571C22.5012 20.0902 22.9359 20.0055 23.3745 20.0078V20.0051ZM22.0305 29.3358H24.6932C24.6989 29.5142 24.6686 29.6918 24.6042 29.8583C24.5399 30.0248 24.4427 30.1766 24.3185 30.3048C24.1943 30.4329 24.0457 30.5349 23.8813 30.6045C23.717 30.674 23.5403 30.7099 23.3619 30.7099C23.1834 30.7099 23.0068 30.674 22.8424 30.6045C22.6781 30.5349 22.5294 30.4329 22.4052 30.3048C22.281 30.1766 22.1839 30.0248 22.1195 29.8583C22.0552 29.6918 22.0249 29.5142 22.0305 29.3358ZM12.0039 40.0024H34.6705V45.3358C34.6705 46.0864 34.0879 46.6691 33.3372 46.6691H13.3372C12.5879 46.6691 12.0039 46.0864 12.0039 45.3358V40.0024ZM23.4185 42.0024C22.6425 42.0024 21.9972 42.6451 21.9972 43.4211C21.9972 44.1984 22.6425 44.8438 23.4185 44.8438C24.1959 44.8438 24.8412 44.1984 24.8412 43.4211C24.8412 42.6451 24.1959 42.0024 23.4185 42.0024Z" fill="#4A00E0"/>
</g>
<defs>
<clipPath id="clip0_1597_5723">
<rect width="48" height="48" fill="white"/>
</clipPath>
</defs>
</svg>
