<svg width="48" height="48" viewBox="0 0 48 48" fill="none" xmlns="http://www.w3.org/2000/svg">
<g clip-path="url(#clip0_1597_5719)">
<path d="M24 0C10.767 0 0 10.767 0 24C0 37.233 10.767 48 24 48C37.233 48 48 37.233 48 24C48 10.767 37.233 0 24 0ZM24 47C11.318 47 1 36.682 1 24C1 11.318 11.318 1 24 1C36.682 1 47 11.318 47 24C47 36.682 36.682 47 24 47Z" fill="#4A00E0"/>
<path d="M22.5 29.6538H25.5C25.6326 29.6538 25.7598 29.6011 25.8536 29.5074C25.9473 29.4136 26 29.2864 26 29.1538C26 29.0212 25.9473 28.894 25.8536 28.8003C25.7598 28.7065 25.6326 28.6538 25.5 28.6538H22.5C22.3674 28.6538 22.2402 28.7065 22.1464 28.8003C22.0527 28.894 22 29.0212 22 29.1538C22 29.2864 22.0527 29.4136 22.1464 29.5074C22.2402 29.6011 22.3674 29.6538 22.5 29.6538Z" fill="#4A00E0"/>
<path d="M30.5 24.661V21.791C30.4983 21.2464 30.3313 20.7152 30.0211 20.2675C29.711 19.8199 29.2723 19.4769 28.763 19.284L26.12 18.293V16.996C26.4604 16.6967 26.7333 16.3285 26.9207 15.9158C27.1081 15.5031 27.2057 15.0553 27.207 14.602V13.318L27.841 11.002C27.8845 10.7652 27.8802 10.5221 27.8283 10.287C27.7765 10.0519 27.6781 9.82951 27.539 9.633C27.401 9.43581 27.225 9.26816 27.0213 9.13989C26.8177 9.01162 26.5905 8.9253 26.353 8.88599H26.352L23.25 8.371C22.8002 8.29436 22.3382 8.39337 21.9593 8.64757C21.5804 8.90177 21.3136 9.29175 21.214 9.737C20.9134 9.82744 20.6471 10.0066 20.45 10.251C20.152 10.62 20.038 11.098 20.15 11.613L20.736 13.406C20.741 13.423 20.757 13.432 20.764 13.448V14.603C20.764 15.559 21.191 16.41 21.854 17V18.303L19.237 19.284C18.7277 19.4769 18.289 19.8199 17.9789 20.2675C17.6687 20.7152 17.5017 21.2464 17.5 21.791V24.661C16.673 24.661 16 25.334 16 26.161C16 26.988 16.673 27.661 17.5 27.661H19.102C19.8827 30.7988 20.2806 34.0195 20.287 37.253V38.654H19.5C19.3674 38.654 19.2402 38.7067 19.1464 38.8004C19.0527 38.8942 19 39.0214 19 39.154C19 39.2866 19.0527 39.4138 19.1464 39.5075C19.2402 39.6013 19.3674 39.654 19.5 39.654H28.5C28.6326 39.654 28.7598 39.6013 28.8536 39.5075C28.9473 39.4138 29 39.2866 29 39.154C29 39.0214 28.9473 38.8942 28.8536 38.8004C28.7598 38.7067 28.6326 38.654 28.5 38.654H27.714V37.253C27.714 34.04 28.119 30.816 28.899 27.661H30.5C31.327 27.661 32 26.988 32 26.161C32 25.334 31.327 24.661 30.5 24.661ZM21.229 10.879C21.2817 10.8135 21.3484 10.7608 21.4242 10.7246C21.5 10.6884 21.583 10.6697 21.667 10.67C21.943 10.67 22.167 10.412 22.167 10.135C22.1669 10.0202 22.1918 9.90679 22.24 9.80263C22.2882 9.69847 22.3586 9.60608 22.4461 9.53191C22.5337 9.45774 22.6365 9.40357 22.7471 9.37319C22.8578 9.34281 22.9738 9.33694 23.087 9.35599L26.19 9.873C26.2966 9.89068 26.3986 9.92952 26.49 9.98723C26.5813 10.0449 26.6602 10.1203 26.722 10.209C26.849 10.389 26.897 10.607 26.868 10.781L26.513 12.075L26.367 11.861C26.3212 11.7937 26.2596 11.7387 26.1876 11.7007C26.1156 11.6627 26.0354 11.6429 25.954 11.643H22.007C21.9276 11.643 21.8493 11.662 21.7787 11.6983C21.7081 11.7347 21.6472 11.7874 21.601 11.852L21.382 12.158L21.117 11.352C21.0983 11.2698 21.0987 11.1845 21.1181 11.1025C21.1375 11.0205 21.1755 10.9441 21.229 10.879ZM21.765 13.338L22.262 12.644H25.688L26.208 13.405V14.603C26.208 15.828 25.211 16.825 23.986 16.825C22.761 16.825 21.765 15.828 21.765 14.603V13.338ZM23.985 17.825C24.386 17.825 24.766 17.742 25.12 17.608V18.65C25.12 18.875 25.286 19.066 25.496 19.128L25.898 19.279C25.6616 19.5548 25.3688 19.7768 25.0393 19.9298C24.7098 20.0828 24.3513 20.1633 23.988 20.166C23.6263 20.1632 23.2693 20.0833 22.941 19.9315C22.6127 19.7798 22.3205 19.5597 22.084 19.286L22.531 19.118C22.6262 19.0822 22.7082 19.0182 22.7661 18.9346C22.824 18.851 22.855 18.7517 22.855 18.65V17.609C23.208 17.742 23.586 17.825 23.985 17.825ZM18.5 21.792C18.5 21.097 18.938 20.466 19.589 20.222L21.085 19.661C21.413 20.1259 21.8477 20.5052 22.3527 20.7673C22.8576 21.0293 23.4181 21.1664 23.987 21.167C24.5574 21.1666 25.1194 21.029 25.6255 20.7659C26.1316 20.5027 26.567 20.1217 26.895 19.655L26.896 19.654L28.411 20.222C28.7301 20.3427 29.0051 20.5574 29.1995 20.8377C29.394 21.1181 29.4988 21.4508 29.5 21.792V24.662H27.744V23.963C27.744 23.615 27.873 23.282 28.108 23.025L28.502 22.593C28.5488 22.545 28.5855 22.4881 28.6099 22.4256C28.6342 22.3632 28.6458 22.2965 28.6439 22.2294C28.6419 22.1624 28.6265 22.0965 28.5986 22.0355C28.5707 21.9746 28.5308 21.9199 28.4813 21.8747C28.4318 21.8295 28.3737 21.7947 28.3104 21.7723C28.2472 21.75 28.1802 21.7407 28.1132 21.7448C28.0463 21.749 27.9809 21.7665 27.9209 21.7964C27.8609 21.8263 27.8076 21.868 27.764 21.919L27.37 22.35C26.9671 22.7901 26.7438 23.3653 26.744 23.962V24.661H21.196V23.962C21.196 23.364 20.973 22.791 20.57 22.35L20.176 21.918C20.0854 21.8251 19.9622 21.7711 19.8325 21.7673C19.7028 21.7636 19.5767 21.8104 19.4809 21.8979C19.3851 21.9854 19.327 22.1068 19.319 22.2363C19.311 22.3658 19.3537 22.4934 19.438 22.592L19.832 23.024C20.067 23.281 20.196 23.614 20.196 23.962V24.661H18.5V21.792ZM26.714 37.253V38.654H21.286V37.253C21.286 34.042 20.901 30.818 20.141 27.661H27.859C27.1008 30.8021 26.7165 34.0217 26.714 37.253ZM30.5 26.661H28.532C28.521 26.66 28.511 26.654 28.5 26.654H19.5C19.489 26.654 19.479 26.661 19.468 26.661H17.5C17.3674 26.661 17.2402 26.6083 17.1464 26.5145C17.0527 26.4208 17 26.2936 17 26.161C17 26.0284 17.0527 25.9012 17.1464 25.8074C17.2402 25.7137 17.3674 25.661 17.5 25.661H17.898C17.932 25.668 17.964 25.682 18 25.682C18.036 25.682 18.068 25.669 18.102 25.661H20.595C20.629 25.668 20.661 25.682 20.697 25.682C20.733 25.682 20.765 25.669 20.799 25.661H27.143C27.177 25.668 27.209 25.682 27.245 25.682C27.281 25.682 27.313 25.669 27.347 25.661H29.899C29.933 25.668 29.965 25.682 30.001 25.682C30.037 25.682 30.069 25.669 30.103 25.661H30.5C30.6326 25.661 30.7598 25.7137 30.8536 25.8074C30.9473 25.9012 31 26.0284 31 26.161C31 26.2936 30.9473 26.4208 30.8536 26.5145C30.7598 26.6083 30.6326 26.661 30.5 26.661Z" fill="#4A00E0"/>
</g>
<defs>
<clipPath id="clip0_1597_5719">
<rect width="48" height="48" fill="white"/>
</clipPath>
</defs>
</svg>
