<svg width="48" height="48" viewBox="0 0 48 48" fill="none" xmlns="http://www.w3.org/2000/svg">
<path d="M24.0004 25.3882C25.1506 25.3864 26.2835 25.1082 27.3037 24.5769C28.3238 24.0456 29.2013 23.2768 29.8621 22.3354C29.8736 22.32 29.8909 22.3143 29.9024 22.2989L29.9159 22.2701C30.8244 20.9465 31.2632 19.3566 31.1624 17.7544C31.0616 16.1522 30.4269 14.6299 29.3597 13.4306C28.2925 12.2313 26.8542 11.4241 25.2745 11.1378C23.6949 10.8516 22.0648 11.1028 20.6446 11.8514C19.2244 12.6 18.096 13.8028 17.4394 15.2678C16.7828 16.7327 16.6359 18.3755 17.0222 19.9337C17.4085 21.492 18.3056 22.8759 19.5705 23.8645C20.8353 24.8532 22.395 25.3896 24.0004 25.3882ZM29.2708 18.1978C29.27 18.9443 29.1096 19.6821 28.8004 20.3616L24.9604 17.6947V13.0234C26.1695 13.2477 27.2622 13.8878 28.0494 14.8327C28.8365 15.7776 29.2686 16.968 29.2708 18.1978ZM23.0404 13.0234V18.1978C23.0406 18.3525 23.0783 18.505 23.1502 18.642C23.222 18.7791 23.326 18.8967 23.4532 18.985L27.704 21.9398C27.1188 22.5211 26.4052 22.9568 25.6207 23.2117C24.8363 23.4667 24.0029 23.5338 23.1878 23.4078C22.3726 23.2817 21.5985 22.9659 20.9277 22.4858C20.257 22.0058 19.7083 21.3749 19.326 20.644C18.9437 19.9131 18.7385 19.1026 18.7268 18.2778C18.7151 17.4531 18.8972 16.6371 19.2586 15.8956C19.62 15.1542 20.1505 14.508 20.8074 14.0091C21.4642 13.5102 22.2291 13.1725 23.0404 13.0234ZM15.6368 29.5162C15.6368 29.2616 15.738 29.0174 15.918 28.8373C16.098 28.6573 16.3422 28.5562 16.5968 28.5562H24.0004C24.255 28.5562 24.4991 28.6573 24.6792 28.8373C24.8592 29.0174 24.9604 29.2616 24.9604 29.5162C24.9604 29.7708 24.8592 30.015 24.6792 30.195C24.4991 30.375 24.255 30.4762 24.0004 30.4762H16.5968C16.4708 30.4762 16.3459 30.4513 16.2295 30.4031C16.113 30.3548 16.0072 30.2841 15.918 30.195C15.8289 30.1058 15.7582 30 15.7099 29.8835C15.6617 29.7671 15.6368 29.6422 15.6368 29.5162ZM32.3639 32.9722C32.3639 33.2268 32.2627 33.471 32.0827 33.651C31.9027 33.831 31.6585 33.9322 31.4039 33.9322H16.5968C16.3422 33.9322 16.098 33.831 15.918 33.651C15.738 33.471 15.6368 33.2268 15.6368 32.9722C15.6368 32.7176 15.738 32.4734 15.918 32.2933C16.098 32.1133 16.3422 32.0122 16.5968 32.0122H31.4039C31.6572 32.0122 31.9002 32.1122 32.08 32.2906C32.2598 32.469 32.3619 32.7112 32.3639 32.9645V32.9722ZM32.3639 36.4282C32.3639 36.6828 32.2627 36.927 32.0827 37.107C31.9027 37.287 31.6585 37.3882 31.4039 37.3882H16.5968C16.3422 37.3882 16.098 37.287 15.918 37.107C15.738 36.927 15.6368 36.6828 15.6368 36.4282C15.6368 36.1736 15.738 35.9294 15.918 35.7493C16.098 35.5693 16.3422 35.4682 16.5968 35.4682H31.4039C31.6558 35.4681 31.8977 35.5672 32.0773 35.7439C32.2569 35.9206 32.3598 36.1609 32.3639 36.4128V36.4282ZM37.9991 12.0749C37.9506 11.9572 37.8795 11.8503 37.7898 11.76L32.0932 6.04609C32.0046 5.9548 31.898 5.88289 31.7802 5.83489C31.6635 5.78586 31.5382 5.76042 31.4116 5.76001H12.8068C12.0429 5.76001 11.3104 6.06344 10.7703 6.60354C10.2302 7.14365 9.92676 7.87619 9.92676 8.64001V39.36C9.92676 40.1238 10.2302 40.8564 10.7703 41.3965C11.3104 41.9366 12.0429 42.24 12.8068 42.24H35.194C35.9578 42.24 36.6903 41.9366 37.2304 41.3965C37.7705 40.8564 38.074 40.1238 38.074 39.36V12.4416C38.0743 12.3155 38.0489 12.1907 37.9991 12.0749ZM32.3716 9.04321L34.8023 11.4816H33.3316C33.077 11.4816 32.8328 11.3805 32.6527 11.2004C32.4727 11.0204 32.3716 10.7762 32.3716 10.5216V9.04321ZM35.194 40.32H12.8068C12.5522 40.32 12.308 40.2189 12.1279 40.0388C11.9479 39.8588 11.8468 39.6146 11.8468 39.36V8.64001C11.8468 8.3854 11.9479 8.14122 12.1279 7.96119C12.308 7.78115 12.5522 7.68001 12.8068 7.68001H30.4516V10.5216C30.4516 11.2854 30.755 12.018 31.2951 12.5581C31.8352 13.0982 32.5677 13.4016 33.3316 13.4016H36.154V39.36C36.154 39.6146 36.0528 39.8588 35.8728 40.0388C35.6927 40.2189 35.4486 40.32 35.194 40.32Z" fill="#4A00E0"/>
</svg>
