<svg width="48" height="48" viewBox="0 0 48 48" fill="none" xmlns="http://www.w3.org/2000/svg">
<g clip-path="url(#clip0_1597_5691)">
<path d="M24 0C19.2533 0 14.6131 1.40758 10.6663 4.04473C6.71955 6.68188 3.6434 10.4302 1.8269 14.8156C0.0103987 19.201 -0.464881 24.0266 0.461164 28.6822C1.38721 33.3377 3.67299 37.6141 7.02945 40.9706C10.3859 44.327 14.6623 46.6128 19.3178 47.5388C23.9734 48.4649 28.799 47.9896 33.1844 46.1731C37.5698 44.3566 41.3181 41.2805 43.9553 37.3337C46.5924 33.3869 48 28.7468 48 24C47.9931 17.6369 45.4623 11.5365 40.9629 7.03711C36.4635 2.53774 30.3631 0.00694821 24 0V0ZM24 46.5C19.5499 46.5 15.1998 45.1804 11.4997 42.7081C7.79957 40.2357 4.91569 36.7217 3.21272 32.6104C1.50975 28.499 1.06417 23.975 1.93234 19.6105C2.80051 15.2459 4.94343 11.2368 8.09011 8.0901C11.2368 4.94342 15.2459 2.8005 19.6105 1.93233C23.9751 1.06416 28.4991 1.50974 32.6104 3.21271C36.7217 4.91568 40.2357 7.79956 42.7081 11.4997C45.1804 15.1998 46.5 19.5499 46.5 24C46.4931 29.9652 44.1203 35.6842 39.9022 39.9022C35.6842 44.1203 29.9653 46.4931 24 46.5Z" fill="#4A00E0"/>
<path d="M29.4375 12.75H11.4375C11.2386 12.75 11.0478 12.829 10.9072 12.9697C10.7665 13.1103 10.6875 13.3011 10.6875 13.5C10.6875 13.6989 10.7665 13.8897 10.9072 14.0303C11.0478 14.171 11.2386 14.25 11.4375 14.25H29.4375C31.5261 14.25 33.5291 15.0797 35.006 16.5565C36.4828 18.0334 37.3125 20.0364 37.3125 22.125C37.3125 24.2136 36.4828 26.2166 35.006 27.6935C33.5291 29.1703 31.5261 30 29.4375 30H13.2488L20.2238 23.0325C20.2937 22.9628 20.3492 22.88 20.3871 22.7889C20.4251 22.6978 20.4447 22.6 20.4449 22.5013C20.445 22.4026 20.4258 22.3048 20.3882 22.2135C20.3505 22.1223 20.2953 22.0393 20.2256 21.9694C20.1559 21.8994 20.0732 21.8439 19.982 21.806C19.8909 21.768 19.7932 21.7484 19.6945 21.7483C19.5957 21.7481 19.4979 21.7674 19.4067 21.805C19.3154 21.8426 19.2324 21.8978 19.1625 21.9675L10.9125 30.2175L10.8825 30.255C10.8584 30.2788 10.837 30.3052 10.8188 30.3337L10.7963 30.3713L10.7475 30.4613V30.5062C10.7475 30.54 10.725 30.57 10.7175 30.6C10.6973 30.699 10.6973 30.801 10.7175 30.9C10.7175 30.93 10.7362 30.96 10.7475 30.9938V31.0387L10.7963 31.1287L10.8188 31.1663C10.8379 31.1953 10.8592 31.2229 10.8825 31.2488C10.8934 31.2592 10.9034 31.2704 10.9125 31.2825L19.1625 39.5325C19.2322 39.6022 19.3149 39.6576 19.4059 39.6953C19.497 39.733 19.5946 39.7525 19.6931 39.7525C19.7917 39.7525 19.8893 39.733 19.9803 39.6953C20.0714 39.6576 20.1541 39.6022 20.2238 39.5325C20.2935 39.4628 20.3488 39.3801 20.3865 39.2891C20.4243 39.198 20.4437 39.1004 20.4437 39.0019C20.4437 38.9033 20.4243 38.8057 20.3865 38.7147C20.3488 38.6236 20.2935 38.5409 20.2238 38.4712L13.2488 31.5H29.4375C31.9239 31.5 34.3085 30.5123 36.0666 28.7541C37.8248 26.996 38.8125 24.6114 38.8125 22.125C38.8125 19.6386 37.8248 17.254 36.0666 15.4959C34.3085 13.7377 31.9239 12.75 29.4375 12.75Z" fill="#4A00E0"/>
</g>
<defs>
<clipPath id="clip0_1597_5691">
<rect width="48" height="48" fill="white"/>
</clipPath>
</defs>
</svg>
