<svg width="48" height="48" viewBox="0 0 48 48" fill="none" xmlns="http://www.w3.org/2000/svg">
<path d="M23.997 3C23.5845 3 23.418 3.1545 23.217 3.2865C23.0027 3.43286 22.7982 3.59321 22.605 3.7665C22.179 4.1415 21.699 4.617 21.225 5.0925C20.7525 5.5665 20.2845 6.0405 19.9065 6.396C19.7534 6.54204 19.5942 6.68166 19.4295 6.8145C19.3905 6.8445 19.3635 6.8565 19.3335 6.873C19.302 6.873 19.2795 6.876 19.236 6.867C19.0333 6.83268 18.8321 6.78964 18.633 6.738C18.1425 6.618 17.5125 6.4335 16.881 6.255C16.2838 6.07886 15.681 5.92228 15.0735 5.7855C14.8234 5.73027 14.5698 5.69218 14.3145 5.6715C14.0775 5.6565 13.8585 5.604 13.497 5.8155C13.1415 6.0225 13.074 6.2355 12.9675 6.4515C12.8535 6.68568 12.7553 6.92722 12.6735 7.1745C12.4905 7.713 12.3165 8.364 12.144 9.012C11.9715 9.66 11.8005 10.305 11.652 10.8015C11.5927 11.0042 11.5252 11.2043 11.4495 11.4015C11.43 11.4495 11.4135 11.472 11.397 11.502C11.3685 11.517 11.3505 11.532 11.3085 11.5485C11.1705 11.6025 10.9635 11.6685 10.719 11.739C10.233 11.8785 9.60151 12.036 8.96401 12.1965C8.32801 12.357 7.69201 12.5205 7.16401 12.6945C6.91952 12.7707 6.68048 12.8635 6.44851 12.972C6.23401 13.077 6.01951 13.14 5.81251 13.503C5.60851 13.8615 5.65351 14.0805 5.66851 14.3205C5.68351 14.5605 5.72551 14.8155 5.78101 15.093C5.89051 15.651 6.06301 16.3005 6.23701 16.9485C6.41251 17.595 6.58801 18.2385 6.70651 18.744C6.76651 18.996 6.81151 19.2135 6.83251 19.365C6.83851 19.4145 6.83551 19.443 6.83551 19.476C6.82051 19.5045 6.81001 19.527 6.78151 19.5615C6.65052 19.7207 6.5129 19.8743 6.36901 20.022C6.01801 20.3865 5.54851 20.8365 5.07751 21.2925C4.60651 21.75 4.13551 22.212 3.76501 22.626C3.59158 22.8138 3.43121 23.0133 3.28501 23.223C3.15001 23.421 2.99851 23.589 3.00001 24.006C3.00151 24.4185 3.15001 24.582 3.28501 24.7815C3.41701 24.9825 3.58051 25.1835 3.76801 25.3965C4.14151 25.824 4.61401 26.301 5.08801 26.775C5.56351 27.2475 6.04051 27.7155 6.39601 28.0935C6.57301 28.281 6.72001 28.449 6.81451 28.5705C6.84451 28.6095 6.85651 28.635 6.87301 28.6635C6.87301 28.6965 6.87751 28.722 6.87001 28.767C6.83549 28.9697 6.79245 29.1709 6.74101 29.37C6.61951 29.8605 6.43651 30.4875 6.25801 31.119C6.07801 31.7505 5.90401 32.385 5.78851 32.9295C5.73226 33.1785 5.69317 33.4311 5.67151 33.6855C5.65651 33.9225 5.60551 34.1415 5.81551 34.503C6.02251 34.8585 6.23551 34.929 6.45151 35.0355C6.66751 35.1435 6.90601 35.235 7.17451 35.3265C7.71151 35.5095 8.35951 35.6865 9.00901 35.859C9.65701 36.0315 10.302 36.1995 10.7985 36.348C11.0475 36.423 11.2605 36.4935 11.403 36.5505C11.448 36.5685 11.4705 36.5865 11.499 36.603C11.514 36.63 11.529 36.6495 11.5455 36.6915C11.5995 36.8295 11.6655 37.0365 11.736 37.281C11.877 37.767 12.033 38.3985 12.1935 39.036C12.354 39.672 12.519 40.311 12.6915 40.8405C12.7785 41.1045 12.8655 41.3415 12.969 41.5545C13.074 41.769 13.14 41.9835 13.503 42.1905C13.8615 42.3945 14.0805 42.345 14.3205 42.3315C14.5605 42.3165 14.8125 42.276 15.0915 42.222C15.6465 42.111 16.2975 41.94 16.9455 41.766C17.5935 41.5905 18.2355 41.412 18.741 41.2935C18.993 41.235 19.2135 41.1915 19.365 41.1705C19.416 41.1645 19.4475 41.1675 19.482 41.1675C19.509 41.1825 19.53 41.1915 19.5615 41.2185C19.677 41.3115 19.836 41.4585 20.019 41.634C20.3835 41.985 20.835 42.453 21.294 42.924C21.75 43.3935 22.212 43.8645 22.626 44.235C22.833 44.421 23.0265 44.583 23.223 44.715C23.421 44.85 23.583 45 24 45C24.001 45 24.002 45 24.003 45C24.4155 45 24.582 44.85 24.783 44.715C24.9825 44.583 25.1805 44.4225 25.395 44.235C25.821 43.86 26.301 43.386 26.775 42.9105C27.2475 42.4365 27.7155 41.9625 28.0935 41.607C28.281 41.43 28.449 41.283 28.5705 41.1885C28.6095 41.1585 28.6365 41.1435 28.6665 41.127C28.698 41.127 28.7205 41.124 28.764 41.133C28.9095 41.1555 29.121 41.2005 29.367 41.262C29.8575 41.382 30.4875 41.562 31.119 41.742C31.7505 41.922 32.382 42.099 32.9265 42.2145C33.1995 42.2715 33.4485 42.312 33.6855 42.3285C33.9225 42.3435 34.1415 42.399 34.503 42.1875C34.8585 41.9805 34.926 41.7675 35.0325 41.5515C35.1405 41.3355 35.235 41.094 35.3265 40.8255C35.5095 40.287 35.6835 39.6405 35.856 38.991C36.0285 38.343 36.1995 37.6965 36.348 37.2015C36.423 36.9525 36.4935 36.7425 36.5505 36.6015C36.5685 36.555 36.5835 36.531 36.6 36.501C36.6285 36.486 36.648 36.471 36.69 36.4545C36.8295 36.4005 37.038 36.3345 37.281 36.264C37.767 36.1245 38.3985 35.967 39.036 35.8065C39.672 35.646 40.308 35.481 40.836 35.3085C41.1015 35.2215 41.3385 35.1345 41.5515 35.031C41.766 34.926 41.9805 34.86 42.1875 34.497C42.3915 34.1385 42.3465 33.9225 42.3315 33.6825C42.3165 33.4425 42.2745 33.1875 42.219 32.9085C42.0868 32.2858 41.9347 31.6675 41.763 31.0545C41.5875 30.4065 41.412 29.7645 41.2935 29.259C41.2431 29.0538 41.2011 28.8466 41.1675 28.638C41.1615 28.59 41.1645 28.56 41.1645 28.527C41.1795 28.4985 41.19 28.4775 41.2185 28.4415C41.3495 28.2823 41.4871 28.1287 41.631 27.981C41.982 27.6165 42.4515 27.165 42.9225 26.706C43.3935 26.25 43.8645 25.788 44.235 25.374C44.421 25.167 44.583 24.9735 44.715 24.777C44.85 24.579 45.0015 24.414 45 23.997C44.9985 23.5845 44.85 23.421 44.715 23.22C44.5678 23.0045 44.4065 22.7991 44.232 22.605C43.8585 22.179 43.386 21.702 42.912 21.228C42.4365 20.7555 41.9595 20.2845 41.604 19.908C41.4581 19.7553 41.3185 19.5966 41.1855 19.4325C41.1555 19.3935 41.1435 19.368 41.127 19.3395C41.127 19.3065 41.1225 19.281 41.13 19.236C41.1525 19.089 41.1975 18.879 41.259 18.633C41.3805 18.1425 41.5635 17.5155 41.742 16.884C41.922 16.2525 42.096 15.618 42.2115 15.0735C42.2678 14.8235 42.3068 14.5699 42.3285 14.3145C42.3435 14.0775 42.3945 13.8585 42.1845 13.497C41.9775 13.1415 41.7645 13.074 41.5485 12.9675C41.3143 12.8543 41.0728 12.7571 40.8255 12.6765C40.2885 12.4935 39.6405 12.3165 38.991 12.144C38.343 11.9715 37.698 11.8035 37.2015 11.655C36.9975 11.5954 36.7958 11.5278 36.597 11.4525C36.552 11.433 36.528 11.4165 36.498 11.4C36.483 11.373 36.4695 11.355 36.453 11.3145C36.3819 11.1207 36.3188 10.924 36.264 10.725C36.123 10.239 35.967 9.6045 35.8065 8.9685C35.6602 8.36224 35.4941 7.76091 35.3085 7.1655C35.2324 6.92145 35.1397 6.6829 35.031 6.4515C34.926 6.237 34.86 6.0225 34.497 5.8155C34.1385 5.6115 33.9195 5.658 33.6795 5.6715C33.4395 5.6865 33.1875 5.727 32.9085 5.781C32.3535 5.892 31.7025 6.063 31.0545 6.237C30.4065 6.4125 29.7645 6.591 29.259 6.7095C29.0528 6.75914 28.8446 6.80018 28.635 6.8325C28.584 6.8385 28.5555 6.8385 28.521 6.8385C28.494 6.822 28.4715 6.813 28.4385 6.7845C28.2805 6.65327 28.1278 6.51566 27.981 6.372C27.6165 6.021 27.165 5.55 26.706 5.0805C26.2763 4.62967 25.8321 4.19294 25.374 3.771C25.1861 3.5977 24.9866 3.43733 24.777 3.291C24.579 3.156 24.417 3.003 24 3.003C23.999 3.003 23.998 3.003 23.997 3.003V3ZM23.994 4.575C24.093 4.6485 24.2175 4.7445 24.372 4.884C24.729 5.2035 25.179 5.658 25.632 6.123C26.085 6.588 26.541 7.065 26.9415 7.4505C27.141 7.6425 27.324 7.812 27.501 7.9545C27.678 8.0955 27.801 8.2215 28.125 8.3085C28.446 8.394 28.6185 8.349 28.845 8.3235C29.073 8.2905 29.325 8.2365 29.601 8.1705C30.153 8.0415 30.804 7.863 31.4445 7.6905C32.085 7.518 32.7165 7.35 33.1995 7.254C33.414 7.212 33.582 7.1895 33.7095 7.179C33.759 7.2885 33.8175 7.434 33.882 7.632C34.032 8.0865 34.191 8.7075 34.35 9.3375C34.509 9.9675 34.668 10.608 34.8225 11.142C34.899 11.409 34.974 11.6475 35.0565 11.859C35.139 12.0705 35.1825 12.24 35.4195 12.477C35.655 12.7125 35.8245 12.762 36.0375 12.846C36.252 12.9315 36.4965 13.011 36.768 13.0935C37.311 13.257 37.9635 13.4265 38.604 13.596C39.246 13.767 39.876 13.941 40.3425 14.1C40.548 14.1705 40.7025 14.235 40.8195 14.2875C40.8032 14.4487 40.7781 14.609 40.7445 14.7675C40.6134 15.342 40.4643 15.9123 40.2975 16.4775C40.1205 17.1015 39.9375 17.7375 39.8025 18.276C39.7365 18.546 39.6825 18.789 39.648 19.014C39.6135 19.239 39.567 19.407 39.654 19.731C39.7395 20.052 39.864 20.181 40.005 20.361C40.1475 20.5425 40.317 20.7315 40.512 20.9385C40.9005 21.351 41.3805 21.8235 41.85 22.2915C42.321 22.761 42.78 23.229 43.104 23.598C43.248 23.763 43.35 23.895 43.4235 24C43.353 24.099 43.2585 24.225 43.119 24.378C42.7995 24.7335 42.345 25.182 41.88 25.635C41.415 26.088 40.935 26.544 40.5495 26.9445C40.3732 27.1244 40.205 27.3121 40.0455 27.507C39.9045 27.684 39.7785 27.807 39.6915 28.131C39.606 28.452 39.6495 28.623 39.6825 28.851C39.7155 29.079 39.768 29.328 39.8325 29.604C39.9615 30.156 40.143 30.807 40.3155 31.4475C40.488 32.088 40.653 32.7225 40.749 33.2055C40.791 33.4185 40.8135 33.585 40.824 33.7125C40.7145 33.7635 40.569 33.8235 40.371 33.888C39.9165 34.0365 39.2985 34.197 38.6685 34.356C38.0385 34.515 37.398 34.671 36.864 34.8255C36.6216 34.8926 36.3823 34.9707 36.147 35.0595C35.9355 35.142 35.763 35.1855 35.526 35.4225C35.2905 35.658 35.2455 35.8305 35.1585 36.0435C35.0648 36.2822 34.9818 36.525 34.9095 36.771C34.746 37.3125 34.5765 37.9665 34.407 38.607C34.236 39.249 34.0635 39.882 33.906 40.347C33.8355 40.5555 33.7695 40.7085 33.7155 40.8255C33.594 40.8105 33.4395 40.7925 33.237 40.749C32.6626 40.6181 32.0923 40.4695 31.527 40.3035C30.9015 40.1265 30.27 39.9435 29.73 39.8085C29.4854 39.7461 29.2382 39.6946 28.989 39.654C28.764 39.6195 28.596 39.57 28.272 39.654C27.951 39.7395 27.825 39.8655 27.645 40.008C27.4443 40.1685 27.2506 40.3377 27.0645 40.515C26.652 40.902 26.1795 41.3835 25.7115 41.853C25.242 42.324 24.777 42.783 24.4065 43.107C24.2415 43.251 24.1065 43.353 24.003 43.4265C23.8728 43.3306 23.7476 43.2279 23.628 43.119C23.1951 42.7193 22.7749 42.3061 22.368 41.88C21.915 41.415 21.459 40.938 21.0585 40.5525C20.8796 40.3763 20.6929 40.2081 20.499 40.0485C20.322 39.9075 20.199 39.7785 19.875 39.6915C19.554 39.606 19.3815 39.6525 19.155 39.6915C18.927 39.7245 18.675 39.7755 18.399 39.8415C17.847 39.9705 17.196 40.149 16.5555 40.3215C15.915 40.494 15.2835 40.659 14.8005 40.755C14.6319 40.7897 14.4617 40.8162 14.2905 40.8345C14.2249 40.6862 14.1673 40.5345 14.118 40.38C13.968 39.9255 13.809 39.3075 13.65 38.6775C13.491 38.0475 13.332 37.407 13.1775 36.873C13.1102 36.6306 13.0322 36.3914 12.9435 36.156C12.861 35.9445 12.8175 35.775 12.5805 35.5365C12.345 35.3025 12.1755 35.2545 11.9625 35.1675C11.7226 35.0751 11.4789 34.993 11.232 34.9215C10.689 34.758 10.0365 34.5885 9.39601 34.4175C8.75401 34.2465 8.12401 34.0725 7.65751 33.9135C7.49534 33.8594 7.33612 33.7968 7.18051 33.726C7.19251 33.606 7.21351 33.4485 7.25551 33.246C7.35451 32.778 7.52551 32.163 7.70251 31.5375C7.87951 30.9135 8.06251 30.2775 8.19751 29.739C8.26351 29.469 8.31751 29.2245 8.35201 29.001C8.38651 28.776 8.43301 28.608 8.34601 28.2825C8.26051 27.9615 8.13601 27.834 7.99501 27.6525C7.83444 27.4532 7.66528 27.2611 7.48801 27.0765C7.09951 26.6625 6.61951 26.1915 6.15001 25.722C5.67901 25.254 5.22001 24.786 4.89601 24.417C4.78233 24.2889 4.67568 24.1547 4.57651 24.015C4.64701 23.916 4.74151 23.79 4.88101 23.637C5.20051 23.28 5.65501 22.833 6.12001 22.38C6.58501 21.927 7.06501 21.471 7.45051 21.0705C7.64251 20.8695 7.81201 20.685 7.95451 20.508C8.09551 20.331 8.22151 20.208 8.30851 19.884C8.39401 19.563 8.35051 19.3905 8.31751 19.164C8.27858 18.9104 8.22853 18.6587 8.16751 18.4095C8.03851 17.859 7.85701 17.2095 7.68451 16.5675C7.52202 15.9861 7.37746 15.3998 7.25101 14.8095C7.21697 14.642 7.19193 14.4727 7.17601 14.3025C7.28551 14.2515 7.43101 14.1915 7.62901 14.127C8.08351 13.9785 8.70151 13.8165 9.33151 13.6575C9.96151 13.5 10.602 13.3425 11.136 13.1895C11.3784 13.1224 11.6177 13.0443 11.853 12.9555C12.0645 12.873 12.237 12.8295 12.474 12.5925C12.7095 12.357 12.7545 12.1845 12.8415 11.97C12.927 11.757 13.008 11.5155 13.0905 11.244C13.254 10.701 13.4235 10.0485 13.593 9.4065C13.764 8.766 13.9365 8.1315 14.094 7.6665C14.1645 7.4595 14.2305 7.3065 14.2845 7.1895C14.406 7.2045 14.5605 7.2225 14.763 7.2645C15.231 7.365 15.849 7.5345 16.473 7.7115C17.0985 7.8885 17.73 8.0715 18.27 8.2065C18.54 8.2725 18.786 8.3265 19.011 8.361C19.236 8.3955 19.404 8.445 19.728 8.361C20.049 8.2755 20.175 8.1495 20.355 8.007C20.5557 7.84645 20.7494 7.67729 20.9355 7.5C21.348 7.1115 21.8205 6.63 22.2885 6.1605C22.758 5.691 23.223 5.2305 23.5935 4.9065C23.757 4.7625 23.889 4.6605 23.994 4.5885V4.575ZM24.294 11.34C21.1731 11.2693 18.1359 12.3537 15.7656 14.3852C13.3953 16.4166 11.8588 19.252 11.451 22.347C11.0697 25.2508 11.7062 28.1971 13.2521 30.6846C14.7981 33.1721 17.158 35.0472 19.9305 35.991C22.7042 36.9308 25.7179 36.8805 28.4588 35.8487C31.1996 34.8168 33.4982 32.8672 34.9635 30.3315C35.0135 30.2462 35.0462 30.1518 35.0596 30.0538C35.073 29.9558 35.0669 29.8561 35.0416 29.7605C35.0163 29.6649 34.9724 29.5752 34.9123 29.4966C34.8522 29.418 34.7772 29.3521 34.6915 29.3027C34.6059 29.2532 34.5113 29.2212 34.4132 29.2084C34.3151 29.1957 34.2154 29.2025 34.12 29.2284C34.0245 29.2543 33.9352 29.2988 33.857 29.3594C33.7788 29.42 33.7134 29.4955 33.6645 29.5815C32.3743 31.8188 30.3478 33.5391 27.9307 34.4489C25.5136 35.3587 22.8557 35.4017 20.4105 34.5705C17.9647 33.7412 15.8824 32.089 14.519 29.8956C13.1557 27.7022 12.5956 25.1037 12.9345 22.5435C13.2704 19.9831 14.4843 17.6187 16.3691 15.8534C18.2538 14.0882 20.6927 13.0317 23.2695 12.864C25.8469 12.6937 28.4034 13.4231 30.503 14.9276C32.6025 16.4322 34.1149 18.6187 34.782 21.114C34.803 21.2138 34.8442 21.3083 34.903 21.3917C34.9618 21.475 35.037 21.5455 35.124 21.5988C35.211 21.6521 35.3079 21.6871 35.4089 21.7017C35.5098 21.7162 35.6127 21.71 35.7112 21.6835C35.8097 21.6569 35.9017 21.6105 35.9817 21.5472C36.0616 21.4838 36.1278 21.4048 36.1762 21.315C36.2246 21.2252 36.2541 21.1265 36.263 21.0248C36.2719 20.9232 36.26 20.8209 36.228 20.724C35.5182 18.0811 33.972 15.739 31.8206 14.0478C29.6692 12.3566 27.0283 11.4072 24.2925 11.3415L24.294 11.34ZM31.485 19.8375V19.8405C31.3416 19.8346 31.1994 19.87 31.0755 19.9425L19.776 26.3925L17.1945 21.972C17.1468 21.8833 17.0817 21.8052 17.0031 21.7422C16.9246 21.6792 16.8341 21.6327 16.7372 21.6055C16.6403 21.5782 16.5388 21.5707 16.439 21.5835C16.3391 21.5963 16.2428 21.629 16.1558 21.6798C16.0689 21.7306 15.9931 21.7983 15.9329 21.879C15.8727 21.9598 15.8293 22.0518 15.8055 22.1496C15.7816 22.2474 15.7777 22.349 15.7939 22.4484C15.8101 22.5478 15.8462 22.6429 15.9 22.728L18.855 27.7905C18.9547 27.9613 19.1178 28.0858 19.3088 28.1369C19.4999 28.188 19.7033 28.1617 19.875 28.0635L31.8195 21.243C31.9628 21.1636 32.0761 21.0396 32.1422 20.8898C32.2083 20.7399 32.2236 20.5726 32.1857 20.4133C32.1478 20.254 32.0588 20.1115 31.9322 20.0075C31.8057 19.9035 31.6486 19.8438 31.485 19.8375ZM35.7135 25.7085C35.6272 25.7118 35.5447 25.7448 35.4799 25.802C35.4152 25.8591 35.3721 25.9368 35.358 26.022C35.2766 26.4771 35.1679 26.9269 35.0325 27.369C35.0182 27.4162 35.0134 27.4657 35.0182 27.5148C35.0231 27.5638 35.0376 27.6114 35.0608 27.6549C35.0841 27.6983 35.1157 27.7368 35.1538 27.768C35.1919 27.7993 35.2358 27.8227 35.283 27.837C35.3302 27.8513 35.3797 27.8561 35.4288 27.8513C35.4778 27.8464 35.5254 27.8319 35.5689 27.8087C35.6124 27.7854 35.6508 27.7538 35.682 27.7157C35.7133 27.6776 35.7367 27.6337 35.751 27.5865C35.895 27.1155 36.0105 26.6385 36.096 26.154C36.1067 26.0986 36.1047 26.0414 36.0902 25.9869C36.0757 25.9323 36.049 25.8818 36.0123 25.8389C35.9755 25.7961 35.9295 25.7621 35.8778 25.7396C35.8261 25.717 35.7699 25.7064 35.7135 25.7085Z" fill="#4A00E0"/>
</svg>
