<svg width="48" height="48" viewBox="0 0 48 48" fill="none" xmlns="http://www.w3.org/2000/svg">
<path d="M17.7195 5.90679L17.6715 6.60879C17.6565 6.84579 17.5395 7.00029 17.2965 7.17129C17.0655 7.33629 16.7205 7.47129 16.4055 7.49979H13.08C10.824 7.49979 9 9.35679 9 11.6248V15.8908C8.95996 16.0284 8.95996 16.1746 9 16.3123V18.7498C9 20.3668 9.57 21.8398 10.5 23.0158V26.5783L3.141 30.7948C1.2195 31.8943 0 33.9298 0 36.1408V43.4998H43.875C46.095 43.4998 48 41.8633 48 39.7498C47.9926 39.5532 47.9112 39.3668 47.7721 39.2277C47.633 39.0886 47.4465 39.0072 47.25 38.9998H45V17.2498C44.9926 17.0533 44.9112 16.8668 44.7721 16.7277C44.633 16.5886 44.4465 16.5072 44.25 16.4998H22.5V10.1248C22.3515 8.98479 22.005 7.96029 21.3285 7.17129C20.652 6.38379 19.6335 5.90079 18.4215 5.90679H17.7195ZM18.7035 7.49979C19.3395 7.56429 19.8555 7.75179 20.2035 8.15679C20.595 8.61279 20.868 9.32679 21 10.2193V14.8588C20.704 14.7068 20.3886 14.5963 20.0625 14.5303C19.17 14.3668 18.258 14.3998 17.391 14.4373C16.5225 14.4733 15.705 14.4778 15.0465 14.2963C14.3895 14.1163 13.89 13.8343 13.4535 13.0783C13.372 12.9331 13.2457 12.8182 13.0935 12.7506C12.9413 12.683 12.7714 12.6664 12.609 12.7033C12.4727 12.7366 12.3482 12.8067 12.2491 12.9059C12.1499 13.005 12.0798 13.1295 12.0465 13.2658C12.0735 13.1638 11.9685 13.3993 11.766 13.6408C11.562 13.8808 11.3115 14.1733 11.016 14.4373C10.845 14.5888 10.6755 14.6893 10.5 14.8123V11.6248C10.5 10.1518 11.64 8.99979 13.0785 8.99979H16.452C17.0748 8.95706 17.6745 8.74663 18.1875 8.39079C18.459 8.19879 18.5205 7.80729 18.7035 7.49979ZM13.032 14.4838C13.551 14.9788 14.01 15.5788 14.625 15.7498C15.576 16.0123 16.545 15.9748 17.4375 15.9373C18.33 15.8998 19.1625 15.8698 19.782 15.9838C20.3535 16.0888 20.697 16.3138 21 16.7803V18.7498C21 21.7198 18.6675 24.0943 15.75 24.0943C12.8325 24.0943 10.5 21.7183 10.5 18.7498V16.5928C10.6305 16.5178 10.791 16.4428 10.9215 16.3588C11.2755 16.1338 11.6565 15.8683 12 15.5623C12.3335 15.2715 12.6467 14.9583 12.9375 14.6248C12.9765 14.5783 12.9945 14.5273 13.032 14.4838ZM22.5 17.9998H43.5V38.9533L40.6875 38.9998H31.5V35.9998C31.5 33.8773 30.39 31.8973 28.5465 30.8428L21 26.5798V22.9693C21.906 21.8038 22.5 20.3443 22.5 18.7513V17.9998ZM19.5 24.4213V27.4213C18.903 28.5298 18.3285 29.6788 17.016 30.7963L16.9695 30.8443L15.7965 31.9213L14.6715 30.8443L14.5785 30.7498C13.503 29.5888 12.4785 28.2103 12 26.9053V24.4678C13.0665 25.1878 14.373 25.5928 15.75 25.5928C17.1495 25.5928 18.423 25.1608 19.5 24.4228V24.4213ZM9.9375 28.5943L9.0465 31.9693L9 32.0143V32.0623C8.859 33.2293 10.125 34.2133 11.2035 33.7033V33.6553L14.016 32.2963L15 33.2338V41.9998H7.5V37.4998H6V41.9998H1.5V36.1408C1.50676 35.3112 1.73114 34.4979 2.15072 33.7822C2.57031 33.0665 3.17039 32.4734 3.891 32.0623L9.9375 28.5943ZM11.484 28.7338C11.9565 29.5648 12.4155 30.3628 13.032 31.0783L10.5465 32.3428H10.5V32.2978C10.497 32.2798 10.494 32.2963 10.5 32.2498L11.484 28.7338ZM21.7965 28.7338L27.7965 32.1568C28.4704 32.5457 29.0294 33.1062 29.4164 33.7812C29.8035 34.4562 30.0048 35.2217 30 35.9998V41.9998H25.5465V37.4998H24.0465V41.9998H16.5465V33.2803L17.625 32.2963L20.5785 33.7033C21.6705 34.1983 22.9785 33.2518 22.8285 32.0623L22.782 31.9678V31.9228C22.782 31.9228 22.365 30.7033 21.984 29.4373C21.909 29.1868 21.861 28.9813 21.7965 28.7338ZM20.343 28.9693C20.43 29.2678 20.484 29.5483 20.5785 29.8588C20.943 31.0693 21.24 32.1208 21.282 32.2498C21.276 32.2858 21.27 32.3503 21.234 32.3443H21.1875L18.6555 31.1248C19.356 30.3598 19.974 29.6563 20.3445 28.9678L20.343 28.9693ZM18.75 35.9998C18.5511 35.9998 18.3603 36.0788 18.2197 36.2195C18.079 36.3601 18 36.5509 18 36.7498C18 36.9487 18.079 37.1395 18.2197 37.2801C18.3603 37.4208 18.5511 37.4998 18.75 37.4998C18.9489 37.4998 19.1397 37.4208 19.2803 37.2801C19.421 37.1395 19.5 36.9487 19.5 36.7498C19.5 36.5509 19.421 36.3601 19.2803 36.2195C19.1397 36.0788 18.9489 35.9998 18.75 35.9998ZM18.75 38.9998C18.5511 38.9998 18.3603 39.0788 18.2197 39.2195C18.079 39.3601 18 39.5509 18 39.7498C18 39.9487 18.079 40.1395 18.2197 40.2801C18.3603 40.4208 18.5511 40.4998 18.75 40.4998C18.9489 40.4998 19.1397 40.4208 19.2803 40.2801C19.421 40.1395 19.5 39.9487 19.5 39.7498C19.5 39.5509 19.421 39.3601 19.2803 39.2195C19.1397 39.0788 18.9489 38.9998 18.75 38.9998ZM31.5 40.4998H46.125C45.7485 41.3128 45.0105 41.9998 43.875 41.9998H31.5V40.4998Z" fill="#4A00E0"/>
</svg>
