<svg data-name="Layer 1" xmlns="http://www.w3.org/2000/svg" viewBox="0 0 512 512"><path d="M454.2 271.73L399 185.4a23.22 23.22 0 00-19.52-10.76l-245.76-1.4a23.27 23.27 0 00-19.63 10.51l-56.37 85.71a23.4 23.4 0 002 28.24l177.51 201.59a23.34 23.34 0 0017.37 7.91 23.33 23.33 0 0017.46-7.71l179.82-199.58a23.38 23.38 0 002.32-28.18zm-86.13-77.16l-47.26 72.18L274.35 194zm-65.68 80.48l-92.94-.52L256.32 203zm-64-81.21l-47.16 72-46.31-72.5zm-112 7.6L173 274.32l-94.14-.54zm-43.46 92.37l100.64.57 52.23 173zm171.93 167.52L204.5 294.5l102.61.58zm19 6.3L328 295.2l100.65.57zm65.31-192.37L386.48 203l46.58 72.83zm-308.91-1.75l-20.33-.12a10 10 0 10-.11 20l20.33.12a10 10 0 10.11-20zm471.66 2.67l-20.33-.11a10 10 0 10-.11 20l20.33.11a10 10 0 10.11-20zM438 104.85a10 10 0 00-14.14-.08l-33.41 33a10 10 0 1014.1 14.23L438 119a10 10 0 000-14.15zm-314.64 31.26l-33-33.41a10 10 0 00-14.22 14.06l33 33.41a10 10 0 1014.22-14.06zM257.58 28.79a10 10 0 00-10.06 10l-.37 65.16a10 10 0 1020 .12l.37-65.17a10 10 0 00-9.94-10.11zm6.48 101.97a10 10 0 102.89 7.09 10.05 10.05 0 00-2.89-7.09z" fill="#837fcb"/></svg>