<svg id="Layer_1" data-name="Layer 1" xmlns="http://www.w3.org/2000/svg" viewBox="0 0 512 512"><defs><style>.cls-1{fill:#837fcb}</style></defs><path class="cls-1" d="M505.28 20.09a10 10 0 00-2.81-6.09l-.11-.11a10 10 0 00-6.11-2.89 324.66 324.66 0 00-302.08 85.25l-6.7 6.62-91.19-.52a10 10 0 00-7.09 2.89L3.3 190.16a10 10 0 00-.08 14.14l40.37 40.83-9.12 9a10 10 0 00-.08 14.14l34.46 34.85-27.48 48a10 10 0 001.57 12l12.57 12.72a199.76 199.76 0 00-45.23 82.06L-1 499.43a10 10 0 0012.17 12.31l41.63-10.85a199.62 199.62 0 0082.57-44.3l12.55 12.69a10 10 0 0012 1.7l48.31-26.93 34.5 34.95a10 10 0 0014.14.08l9.12-9 40.22 40.68a10 10 0 0014.14.08l85.88-84.92a10 10 0 003-7.06l.52-90.89 6.85-6.77a324.68 324.68 0 0088.71-301.1zM24.48 197.35l75.83-75 67.05.38-91.14 90.14-18.41 18.2zm23.24 284.18L22.8 488l6.78-24.84a179.62 179.62 0 0140-73.1l51.66 52.26a179.56 179.56 0 01-73.52 39.21zm109-31.72l-13.25-13.4a9.67 9.67 0 00-.74-.84 8.28 8.28 0 00-.83-.74L77.35 369.5c-.23-.29-.47-.57-.73-.84s-.55-.51-.83-.75l-13.28-13.42 20.94-36.59 110.13 111.39zm232.51-35.21l-75.83 75-33.18-33.6 109.39-108.15-.38 66.75zM402.51 307L259.05 448.81l-9.11 9-32.87-33.24L88.42 294.48l-32.77-33.14 27.51-27.21 132.71 134.22a10 10 0 0014.22-14.06L97.39 220.07l110.84-109.6C282 37.52 385.74 7.43 486.8 29.34 507.56 130.65 476.3 234 402.51 307z"/><path class="cls-1" d="M372.93 205.47a10 10 0 00-10.06 9.94v.59a10 10 0 009.86 10.14h.08a10 10 0 0010.06-9.86v-.8a10 10 0 00-9.94-10.01z"/><path class="cls-1" d="M367.7 244.07a10 10 0 00-13.7 3.52 64 64 0 11-5.83-73.37 10 10 0 0015.39-12.77 84 84 0 107.65 96.32 10 10 0 00-3.51-13.7zM253.42 377.89a10 10 0 102.89 7.09 10 10 0 00-2.89-7.09z"/></svg>