<svg id="Layer_1" data-name="Layer 1" xmlns="http://www.w3.org/2000/svg" viewBox="0 0 512 512"><defs><style>.cls-1{fill:#837fcb}</style></defs><path class="cls-1" d="M235.52 347.9A10 10 0 10221.3 362a10 10 0 1014.22-14.06z"/><path class="cls-1" d="M448 260.2a10 10 0 00-10.05 9.94l-.25 44-172-1 .14-24.69a74.73 74.73 0 00-65-74.41 52 52 0 0011.83-32.76l.4-70.35a10 10 0 00-9.95-10l-52.32-.3a42.2 42.2 0 00-42.39 41.92l-.22 38.19a51.94 51.94 0 0011.46 32.89 74.74 74.74 0 00-65.83 73.67l-.17 24.7-34-.2L21 71.51a7.78 7.78 0 017.85-7.71L236.72 65a10 10 0 10.12-20L29 43.8A27.8 27.8 0 001 71.4L-.66 367.88A27.81 27.81 0 0027 395.8l152.18.86-.27 46.19a50.13 50.13 0 00-45.26 49.55 10 10 0 009.94 10.06l168 1a10 10 0 0010.06-9.94 50.13 50.13 0 00-44.7-50.06l.26-46.19 152.18.86a27.81 27.81 0 0028-27.6l.57-100.22A10 10 0 00448 260.2zM128.38 142.62a22.17 22.17 0 0122.28-22l42.32.24-.09 16a14.4 14.4 0 01-14.47 14.3l-50.09-.29zm-.16 28.19l50.09.29a34 34 0 0014.4-3.09l-.07 13.17a32.24 32.24 0 11-64.48-.37zm43.55 62.49L160 244.9l-11.61-11.73 23.34.13zm-98 54.08a54.72 54.72 0 0146.95-53.78l32.1 32.48a10 10 0 0014.15.08l32.47-32.11a54.7 54.7 0 0146.33 54.3l-.12 24.65-172-1zM300 483.35l-144.57-.82a30.11 30.11 0 0128.46-19.91h4.92l78 .44h4.92A30.12 30.12 0 01300 483.35zm-101.11-40.64l.26-45.94 58 .33-.22 45.9zm238.44-72.34a7.8 7.8 0 01-7.85 7.71L27.1 375.8a7.79 7.79 0 01-7.76-7.8l.2-36.25 418 2.37zm17.89-144.87a10 10 0 102.89 7.09 10.09 10.09 0 00-2.89-7.09zm-6.01-186.29l-75-.43a10 10 0 10-.11 20l75 .42a10 10 0 10.12-20zm-108.95 2.31a10 10 0 102.89 7.08 10.05 10.05 0 00-2.89-7.08zM449 83.2l-116-.65a10 10 0 10-.11 20l116 .65a10 10 0 10.12-20z"/><path class="cls-1" d="M448.71 127.2l-116-.65a10 10 0 10-.11 20l116 .65a10 10 0 10.12-20z"/><path class="cls-1" d="M463.47-7.71l-144-.82a50.06 50.06 0 00-50.29 49.71l-.6 107a50.06 50.06 0 0044.05 49.93l-.15 26a10 10 0 0017 7.17l32.92-32.55 99.86.56a50 50 0 0050.28-49.71l.61-107a50.05 50.05 0 00-49.68-50.29zm29.11 157.16a30 30 0 01-30.17 29.83l-104-.59a10 10 0 00-7.08 2.89l-18.7 18.49.06-11.52a10 10 0 00-9.94-10.06h-4.33a30 30 0 01-29.83-30.17l.6-107a30 30 0 0130.17-29.83l144 .82a30 30 0 0129.83 30.16z"/></svg>