<svg id="Layer_1" data-name="Layer 1" xmlns="http://www.w3.org/2000/svg" viewBox="0 0 512 512"><defs><style>.cls-1{fill:#837fcb}</style></defs><path class="cls-1" d="M256.49 173.53a91 91 0 00-78 138.7 9.79 9.79 0 00.94 1.49 91 91 0 1077-140.19zM190.11 291a71 71 0 01124.12-67L259 278.63l-20.84-21.08a10 10 0 00-14.15-.08zm65.46 44.53a70.89 70.89 0 01-55-26.71l30.43-30.1 20.84 21.08a10 10 0 0014.14.08l57.64-57a71 71 0 01-68 92.62z"/><path class="cls-1" d="M409.86 252.5A296.55 296.55 0 00262.39 3.88a10 10 0 00-9.94 0 296.52 296.52 0 00-150.28 246.87 96.1 96.1 0 00-58.65 87.92l-.4 70.65a10 10 0 009.94 10.06l146.94.83a125.64 125.64 0 0036.43 80.34l11.09 11.05a10 10 0 0014 .08l11.22-10.93a125.58 125.58 0 0037.33-79.91l30.94.17-.29 51.61a10 10 0 0020 .12l.29-51.62 96 .55a10 10 0 0010.06-9.95l.4-70.64a96.08 96.08 0 00-57.61-88.58zM257.31 24.13A275.93 275.93 0 01336.47 97l-159.15-.9a276 276 0 0179.99-71.97zM63.17 399.43l.35-60.65a76.06 76.06 0 0138.37-65.62l-.66 116.49a30 30 0 001.66 10zm195.65 87l-4.16 4.05-4.12-4.1a105.51 105.51 0 01-30.48-66.06l70 .4a105.49 105.49 0 01-31.24 65.71zm130.4-95.15a10 10 0 01-10.05 10l-248-1.41a10 10 0 01-9.94-10.06l.77-129.46a276 276 0 0121-104l45.28.26a10 10 0 10.11-20l-36.19-.21q5.31-10.4 11.51-20.4l186.14 1A276.69 276.69 0 01390 261.87zm57.95 10.33l-39.72-.22a29.85 29.85 0 001.77-10l.66-116.49a76.06 76.06 0 0137.63 66z"/><path class="cls-1" d="M231.72 145.81a10 10 0 102.89 7.09 10.09 10.09 0 00-2.89-7.09zm-72.81 306.92a10 10 0 00-10.06 9.94l-.18 30.81a10 10 0 0020 .11l.18-30.81a10 10 0 00-9.94-10.05zM357.69 504a10 10 0 102.89 7.08 10 10 0 00-2.89-7.08z"/></svg>